<svg width="266" height="177" viewBox="0 0 266 177" fill="none" xmlns="http://www.w3.org/2000/svg">
<g clip-path="url(#clip0_201_18375)">
<path d="M87.2383 5.58008C87.1527 5.97012 86.9101 6.22461 86.5106 6.34353C85.1597 6.74784 83.8183 7.30437 82.4865 8.01311C81.5494 8.51256 81.2711 9.25697 81.6517 10.2463C82.251 11.8256 83.4901 12.1466 85.369 11.2096C86.8245 10.4866 88.3205 9.85869 89.8569 9.32594" stroke="#CD8558" stroke-width="1.427"/>
<path d="M93.0961 17.146C91.4931 17.9356 89.8711 18.6871 88.2301 19.4006C87.312 19.8002 86.7056 20.3234 86.4107 20.9703C85.8066 22.2879 86.3726 23.1394 88.1088 23.5247C88.3366 23.5758 88.5749 23.5585 88.7937 23.4747L94.3162 21.2771" stroke="#CD8558" stroke-width="1.427"/>
<path d="M91.4909 30.7594C89.5835 30.4978 87.8449 29.4918 86.2752 27.7413C80.1724 20.9488 77.3327 13.1455 77.756 4.33147C77.7893 3.59894 78.2055 2.59766 79.0047 1.32764" stroke="#90B76C" stroke-width="1.427"/>
<path d="M85.0693 34.0915C85.0217 33.7633 84.8576 33.5778 84.5769 33.535C84.1869 33.4732 83.961 33.428 83.8991 33.3994C81.6302 32.3815 79.7014 30.7191 78.1127 28.4121C74.3501 22.9515 72.0313 17.1246 71.156 10.9314C70.8088 8.46269 71.225 5.95594 72.4047 3.41113" stroke="#8ECED4" stroke-width="1.427"/>
<path d="M83.4639 34.5052C81.8847 33.6918 80.5076 32.6215 79.3327 31.2944C75.6558 27.1561 73.004 22.4352 71.3772 17.1315C70.0263 12.7173 69.7742 8.4601 70.6209 4.35986" stroke="#8ECED4" stroke-width="1.427"/>
<path d="M57.4213 29.9889C57.6306 29.6464 57.6211 29.3562 57.3928 29.1184C57.1216 28.8283 56.9694 28.6546 56.9361 28.5975L55.8159 26.4214" stroke="#43A8CC" stroke-width="1.427"/>
<path d="M51.5634 32.5143C51.6157 31.2205 51.19 30.6212 50.2862 30.7163C49.8391 30.7639 49.3254 31.0207 48.7451 31.4869C47.2515 32.6618 45.9315 34.0151 44.7852 35.5467" stroke="#ADAEC8" stroke-width="1.427"/>
<path d="M44.7853 35.5469C44.6569 35.3661 44.469 35.2971 44.2217 35.3399" stroke="#867DBA" stroke-width="1.427"/>
<path d="M46.3907 30.5527C45.9103 32.2604 45.1873 33.8562 44.2217 35.3403" stroke="#ADAEC8" stroke-width="1.427"/>
<path d="M44.2215 35.3402C43.4604 36.1964 42.7207 37.0692 42.0025 37.9587C41.7361 38.2869 41.4697 38.4843 41.2034 38.5509C40.6659 38.6841 40.3638 38.3963 40.2972 37.6876C40.0261 34.6862 40.2045 31.1282 40.8323 27.0137" stroke="#CE7C94" stroke-width="1.427"/>
<path d="M44.7852 35.5469C41.7837 39.7708 40.0642 42.639 39.6266 44.1517C39.3888 44.9698 39.1319 45.1767 38.856 44.7724C38.7995 44.6922 38.7672 44.5916 38.7622 44.4804C38.7572 44.3691 38.7797 44.251 38.8275 44.1374C39.3174 42.9673 39.8573 41.8233 40.4471 40.7055C41.0607 39.5448 40.8443 39.0121 39.7978 39.1072C39.7007 39.1182 39.6076 39.1619 39.5301 39.233C39.4527 39.3041 39.3944 39.3994 39.3626 39.5068C39.0772 40.4676 38.5421 41.2192 37.7572 41.7614C37.2625 42.1039 36.7916 42.1848 36.3445 42.004C35.8498 41.8138 35.4717 41.4213 35.21 40.8268C35.0293 40.4272 34.8247 40.4296 34.5964 40.8339L33.4049 42.9458C33.3406 43.0587 33.2956 43.1727 33.2734 43.279C33.2511 43.3854 33.2522 43.4813 33.2765 43.5595C34.2183 46.4753 34.5489 49.4601 34.2682 52.5139C34.2444 52.7517 34.1755 52.961 34.0613 53.1417C33.657 53.7791 33.3882 53.7506 33.255 53.0561C33.217 52.8706 33.2146 52.6447 33.2479 52.3783C33.5476 49.8763 33.3977 47.4028 32.7984 44.9579C32.532 43.8877 31.878 43.0576 30.8363 42.4678C30.7982 42.4469 30.7558 42.4349 30.7124 42.4328C30.669 42.4307 30.6257 42.4386 30.5857 42.4558C30.5458 42.473 30.5104 42.4991 30.4821 42.5321C30.4538 42.5651 30.4334 42.6041 30.4225 42.6462C30.0181 44.1636 29.1572 44.77 27.8396 44.4656" stroke="#CE7C94" stroke-width="1.427"/>
<path d="M27.8396 44.4659C27.1214 43.995 26.9335 43.4504 27.276 42.832" stroke="#867DBA" stroke-width="1.427"/>
<path d="M43.0014 101.724C42.2451 104.512 41.5744 107.318 40.9894 110.143C40.8799 110.676 41.0012 110.809 41.3532 110.543C41.4484 110.472 41.5221 110.369 41.5744 110.236C42.3973 108.034 43.0418 105.779 43.508 103.472C43.6269 102.873 43.5579 102.29 43.3011 101.724" stroke="#CE7C94" stroke-width="1.427"/>
<path d="M45.1135 99.9116C45.5226 100.04 45.8294 100.287 46.0339 100.654" stroke="#F77E74" stroke-width="1.427"/>
<path d="M46.0339 100.654C50.8857 110.167 54.6221 119.68 57.243 129.194C58.2229 132.756 58.9459 136.859 59.412 141.502" stroke="#C87592" stroke-width="1.427"/>
<path d="M59.4119 141.501C57.4474 142.244 55.4163 142.729 53.3186 142.957" stroke="#A86975" stroke-width="1.427"/>
<path d="M24.6289 47.6766L27.8396 44.4658" stroke="#ADAEC8" stroke-width="1.427"/>
<path d="M40.654 27.0137C40.711 27.2705 40.6635 27.4394 40.5113 27.5203C40.3947 27.5808 40.2936 27.6491 40.2183 27.7181C40.143 27.7871 40.0964 27.8543 40.0832 27.9127C39.5266 30.486 39.2246 33.0903 39.177 35.7255C39.139 37.7851 38.7798 39.243 38.0996 40.0992C36.7868 41.7593 35.914 41.5548 35.4811 39.4856C34.896 36.6602 34.7676 33.8228 35.0958 30.9736C35.1148 30.7928 35.1077 30.6359 35.0744 30.5027C34.9412 29.9937 34.7557 29.939 34.5179 30.3386C34.4465 30.4622 34.4037 30.6168 34.3895 30.8024C34.1374 33.7039 33.9233 36.6102 33.7473 39.5213C33.7045 40.23 33.626 40.7842 33.5118 41.1837C33.1266 42.5156 32.5391 42.7701 31.7495 41.9472C31.4023 41.5857 31.1288 41.0743 30.929 40.4132C30.2535 38.1442 29.9658 35.8206 30.0657 33.4423C30.0681 33.3868 30.0611 33.3313 30.0453 33.2796C30.0294 33.2278 30.0051 33.181 29.9739 33.1424C29.9427 33.1038 29.9055 33.0742 29.8646 33.0558C29.8238 33.0374 29.7804 33.0305 29.7374 33.0356C29.5519 33.0546 29.4449 33.1783 29.4164 33.4066C29.131 35.6851 29.2499 37.9445 29.7731 40.1848C30.1537 41.8069 29.961 42.8628 29.1952 43.3528C28.4912 43.7999 27.8514 43.6263 27.2759 42.8319" stroke="#CE7C94" stroke-width="1.427"/>
<path d="M27.2761 42.8319L26.3557 41.0767" stroke="#ADAEC8" stroke-width="1.427"/>
<path d="M213.499 98.8984C212.229 99.8973 211.173 101.091 210.331 102.48C203.453 113.787 199.167 126.021 197.474 139.183" stroke="#CA4664" stroke-width="1.427"/>
<path d="M197.474 139.183C197.108 142.736 197.112 145.932 197.488 148.772C197.64 149.909 198.064 151.169 198.758 152.554C198.82 152.677 198.97 152.853 199.208 153.082C199.498 153.367 199.555 153.728 199.379 154.166" stroke="#AA3A47" stroke-width="1.427"/>
<path d="M185.344 156.485C185.558 158.345 186.024 160.138 186.743 161.865" stroke="#9C807D" stroke-width="1.427"/>
<path d="M186.743 161.865L188.705 172.332" stroke="#AA3A47" stroke-width="1.427"/>
<path d="M78.7976 172.717L79.8679 161.479" stroke="#AA3A47" stroke-width="1.427"/>
<path d="M79.8679 161.479L80.5814 156.128" stroke="#9C807D" stroke-width="1.427"/>
<path d="M71.3344 154.73C71.049 154.568 70.9491 154.345 71.0348 154.059C71.1346 153.755 71.187 153.579 71.1917 153.531C71.401 151.633 71.2702 149.586 70.7993 147.388C70.0525 143.878 69.1012 140.776 67.9453 138.084" stroke="#AA3A47" stroke-width="1.427"/>
<path d="M67.9455 138.084C62.8035 125.122 55.9516 112.957 47.3896 101.588C46.9948 101.07 46.5429 100.758 46.0339 100.654" stroke="#CA4664" stroke-width="1.427"/>
<path d="M67.9453 138.084C65.3196 139.787 62.4751 140.926 59.4119 141.502" stroke="#7B3065" stroke-width="1.427"/>
<path d="M79.868 161.479C74.4645 162.417 69.4938 163.739 64.9559 165.447C63.7239 165.913 62.461 166.681 61.1672 167.751" stroke="#4D6A7E" stroke-width="1.427"/>
<path d="M204.58 142.186C204.285 142.362 203.943 142.358 203.553 142.172C201.522 141.188 199.495 140.191 197.474 139.183" stroke="#7B3065" stroke-width="1.427"/>
<path d="M142.656 61.9466C138.418 62.3747 134.539 61.8752 131.019 60.4482C130.296 60.1581 130.151 60.3365 130.583 60.9834C132.196 63.3997 134.446 64.8505 137.333 65.3357C140.349 65.8399 142.361 66.0777 143.369 66.0492" stroke="#A86975" stroke-width="1.427"/>
<path d="M146.787 81.0611C148.076 86.6597 147.577 92.0847 145.289 97.336C144.314 99.5859 142.925 101.063 141.122 101.767C139.486 102.409 138.02 102.178 136.727 101.075C135.533 100.047 134.65 98.9699 134.08 97.8426C132.557 94.8459 131.421 91.5162 130.669 87.8536C130.622 87.6205 130.574 87.6182 130.526 87.8465C129.08 94.7674 127.96 102.782 127.166 111.891C126.79 116.187 128.521 118.796 132.36 119.718C132.574 119.771 132.745 119.861 132.874 119.99C133.326 120.441 133.24 120.675 132.617 120.689C132.431 120.689 132.22 120.66 131.982 120.603C127.739 119.523 125.777 116.679 126.096 112.07C126.624 104.459 127.611 97.3693 129.057 90.8004C129.104 90.5816 129.135 90.3723 129.149 90.1725C129.273 88.2841 129.052 88.1485 128.486 89.7658C127.054 93.866 124.88 97.4739 121.964 100.59C120.961 101.655 119.957 102.195 118.953 102.209C117.622 102.223 116.492 101.588 115.564 100.304C114.684 99.0865 114.075 97.7689 113.738 96.3514C113.528 95.4857 113.331 94.0729 113.146 92.1132C112.798 88.4648 113.205 84.7261 114.366 80.897C114.556 80.2691 114.898 79.9076 115.393 79.8125" stroke="#F77E74" stroke-width="1.427"/>
<path d="M209.396 143.97L204.58 142.187" stroke="#A86975" stroke-width="1.427"/>
<path d="M204.58 142.186C203.581 126.884 206.554 112.455 213.499 98.8984" stroke="#C87592" stroke-width="1.427"/>
<path d="M213.499 98.8984C213.765 98.6511 213.894 98.3443 213.884 97.978" stroke="#F77E74" stroke-width="1.427"/>
<path d="M220.812 104.607L220.598 105.327C220.508 105.641 220.47 105.865 220.484 105.998C220.693 108.495 221.195 110.928 221.99 113.297C222.068 113.533 222.209 113.727 222.389 113.846C222.988 114.256 223.184 114.018 222.974 113.133C222.304 110.284 221.633 107.432 220.962 104.578" stroke="#CE7C94" stroke-width="1.427"/>
<path d="M203.688 167.751C202.437 166.719 201.174 165.951 199.9 165.446C195.823 163.839 191.437 162.645 186.743 161.865" stroke="#4D6A7E" stroke-width="1.427"/>
<path d="M142.299 30.5524L138.396 31.7154C138.292 31.7469 138.18 31.7467 138.077 31.7149C137.974 31.683 137.884 31.6211 137.818 31.537C136.938 30.4335 137.081 29.4179 138.246 28.4904C138.422 28.3524 138.408 28.3191 138.204 28.3905C135.573 29.299 133.245 30.6975 131.218 32.5859C131.033 32.7523 131.061 32.8142 131.304 32.7714C131.623 32.7095 131.939 32.6334 132.253 32.5431C132.824 32.3718 133.249 32.3242 133.53 32.4003C134.034 32.5288 134.339 32.8641 134.443 33.4064C134.48 33.6123 134.424 33.8499 134.286 34.0699C133.116 35.8965 131.946 37.723 130.776 39.5496C130.143 40.539 129.549 40.715 128.992 40.0776C128.712 39.7589 128.533 39.3165 128.457 38.7505C128.286 37.4614 128.488 36.2128 129.064 35.0046C129.268 34.586 129.209 34.5218 128.885 34.812C128.838 34.8548 128.8 34.9047 128.771 34.9618C127.035 38.2011 126.148 41.6663 126.11 45.3575C126.091 46.9177 125.986 48.0783 125.796 48.8393C125.42 50.3329 124.583 50.6611 123.284 49.824C120.278 47.8785 117.122 46.8059 113.816 46.6061" stroke="#A86975" stroke-width="1.427"/>
<path d="M219.892 33.4067C220.192 35.0383 220.746 36.5842 221.554 38.0445" stroke="#ADAEC8" stroke-width="1.427"/>
<path d="M221.554 38.0444C221.573 38.3203 221.445 38.4488 221.169 38.4297" stroke="#867DBA" stroke-width="1.427"/>
<path d="M221.169 38.4295C219.728 36.7456 218.479 35.4875 217.423 34.6551C215.739 33.3327 214.838 33.6895 214.719 35.7253" stroke="#ADAEC8" stroke-width="1.427"/>
<path d="M231.693 33.4351C232.036 39.4189 232.333 43.2147 232.585 44.8225C232.794 46.1353 233.282 46.4564 234.048 45.7857C234.333 45.5384 234.564 45.1768 234.74 44.7012C235.701 42.1659 236.181 39.5307 236.181 36.7956" stroke="#CE7C94" stroke-width="1.427"/>
<path d="M236.688 36.646C236.902 39.2669 236.78 41.8688 236.324 44.4517C236.19 45.208 236.181 45.8144 236.295 46.2711C236.633 47.6315 237.408 47.7433 238.621 46.6064" stroke="#CE7C94" stroke-width="1.427"/>
<path d="M238.621 46.6064L239.392 47.4983" stroke="#867DBA" stroke-width="1.427"/>
<path d="M239.335 47.6766C239.021 47.4102 238.761 47.3888 238.557 47.6124C238.362 47.8312 238.26 47.9454 238.25 47.9549C237.289 48.6541 236.326 48.2308 235.36 46.6848C234.894 45.9333 234.469 45.9571 234.083 46.7562C232.58 49.8908 231.995 53.035 232.328 56.1886C232.352 56.417 232.352 56.6001 232.328 56.738C232.247 57.1804 232.059 57.2803 231.764 57.0377C231.609 56.9052 231.502 56.6856 231.465 56.4241C231.084 53.5939 231.293 51.1085 232.093 48.968C232.587 47.6552 232.54 46.535 231.95 45.6075C231.812 45.3934 231.738 45.1746 231.729 44.951C231.681 43.9236 231.434 43.6953 230.987 44.2661C230.711 44.6181 230.54 44.825 230.473 44.8868C229.017 46.2758 227.838 45.9476 226.934 43.9022C226.216 42.2754 225.7 42.1541 225.386 43.5383C225.335 43.7532 225.376 43.9888 225.5 44.1947C226.418 45.7407 226.863 46.8561 226.834 47.541C226.782 48.6922 226.544 48.8872 226.121 48.1261C226.045 47.9834 225.971 47.7955 225.899 47.5625C225.219 45.3791 224.132 43.2624 222.639 41.2123C222.135 40.5131 221.645 39.5856 221.169 38.4297" stroke="#CE7C94" stroke-width="1.427"/>
<path d="M225.478 30.5527C225.878 33.9442 225.997 37.3405 225.835 40.7415C225.811 41.1648 225.712 41.4835 225.536 41.6976C225.164 42.1399 224.741 42.0401 224.265 41.3979C223.409 40.242 222.506 39.1242 221.554 38.0445" stroke="#CE7C94" stroke-width="1.427"/>
<path d="M208.326 28.3833C207.974 29.3204 207.525 30.2027 206.978 31.0304C206.959 31.0637 206.861 31.1731 206.685 31.3586C206.504 31.5441 206.516 31.7415 206.721 31.9508" stroke="#43A8CC" stroke-width="1.427"/>
<path d="M231.336 33.4352C231.137 34.4864 231.077 35.5472 231.158 36.6174C231.31 38.5581 231.17 40.4584 230.737 42.3182C230.556 43.0793 230.321 43.6787 230.031 44.1163C229.246 45.2959 228.432 45.0557 227.59 43.3956C226.934 42.0971 226.694 40.0755 226.87 37.3309C227.022 34.9573 226.727 32.648 225.985 30.4028" stroke="#CE7C94" stroke-width="1.427"/>
<path d="M239.748 43.0386L238.621 46.6061" stroke="#ADAEC8" stroke-width="1.427"/>
<path d="M194.085 6.82861C194.579 9.64931 194.57 12.3249 194.056 14.8555C192.472 22.6611 188.712 29.3062 182.776 34.7906C182.048 35.4613 181.051 35.9607 179.786 36.2889" stroke="#8ECED4" stroke-width="1.427"/>
<path d="M192.451 5.72998C193.626 9.38785 193.678 13.0719 192.608 16.7821C191.209 21.6338 188.993 26.0766 185.958 30.1102C184.455 32.108 182.74 33.6682 180.814 34.7907C180.062 35.2284 179.115 35.4805 177.974 35.5471" stroke="#8ECED4" stroke-width="1.427"/>
<path d="M185.851 3.46826C186.974 5.9988 187.211 8.84328 186.564 12.0017C185.114 19.0844 182.036 25.0444 177.332 29.882C175.905 31.3518 174.285 32.2389 172.473 32.5433" stroke="#90B76C" stroke-width="1.427"/>
<path d="M179.94 13.6586C180.283 13.8212 180.713 13.7664 181.133 13.5063C181.554 13.2462 181.931 12.8022 182.181 12.2718C182.306 12.0092 182.395 11.7333 182.444 11.4599C182.494 11.1865 182.503 10.9209 182.47 10.6783C182.437 10.4357 182.364 10.2208 182.254 10.0459C182.145 9.87109 182 9.73968 181.83 9.65919C181.486 9.49665 181.057 9.55145 180.636 9.81153C180.216 10.0716 179.839 10.5157 179.588 11.046C179.464 11.3086 179.375 11.5845 179.325 11.8579C179.276 12.1314 179.267 12.3969 179.3 12.6396C179.332 12.8822 179.406 13.097 179.515 13.2719C179.625 13.4467 179.769 13.5781 179.94 13.6586Z" stroke="#CD8558" stroke-width="1.427"/>
<path d="M174.589 25.1314C174.756 25.206 174.944 25.2281 175.143 25.1966C175.342 25.165 175.548 25.0804 175.749 24.9474C175.95 24.8145 176.143 24.6359 176.315 24.4219C176.487 24.2079 176.636 23.9625 176.754 23.6999C176.991 23.1697 177.085 22.6012 177.014 22.1197C176.944 21.6382 176.715 21.2831 176.378 21.1324C176.211 21.0578 176.023 21.0356 175.824 21.0672C175.625 21.0987 175.419 21.1834 175.218 21.3163C175.017 21.4492 174.825 21.6278 174.653 21.8418C174.48 22.0559 174.331 22.3012 174.214 22.5638C173.977 23.0941 173.883 23.6625 173.953 24.144C174.024 24.6255 174.253 24.9807 174.589 25.1314Z" stroke="#CD8558" stroke-width="1.427"/>
<path d="M116.463 24.0167C116.192 23.7599 115.921 23.7194 115.65 23.8954C115.616 23.9172 115.59 23.9477 115.572 23.9843C115.555 24.021 115.547 24.0627 115.55 24.106C115.553 24.1493 115.566 24.1929 115.588 24.2332C115.611 24.2736 115.641 24.3094 115.678 24.3378C116.91 25.2511 117.902 26.3713 118.654 27.6984C118.715 27.804 118.802 27.8882 118.9 27.9355C118.997 27.9827 119.097 27.9897 119.182 27.9552C119.41 27.8649 119.455 27.6603 119.317 27.3416C118.856 26.2666 118.071 25.3082 116.963 24.4662C116.929 24.4424 116.763 24.2926 116.463 24.0167Z" stroke="#7B3065" stroke-width="1.427"/>
<path d="M142.413 37.916C142.356 37.8911 142.306 37.8516 142.268 37.8013C142.231 37.7511 142.208 37.6919 142.2 37.6297C142.193 37.5676 142.202 37.5046 142.227 37.4471C142.252 37.3897 142.291 37.3397 142.342 37.3023C143.203 36.6697 143.69 35.9586 143.804 35.169C143.938 34.2938 143.569 34.0583 142.698 34.4626L139.973 35.7398C139.876 35.7857 139.79 35.8515 139.72 35.9317C139.65 36.0119 139.6 36.1045 139.572 36.2021C139.544 36.2997 139.54 36.3996 139.56 36.494C139.58 36.5884 139.624 36.6746 139.687 36.7458C140.629 37.7875 141.84 38.6152 143.319 39.2288C143.53 39.3157 143.702 39.4756 143.806 39.6797C143.909 39.8838 143.936 40.1186 143.883 40.3419C143.521 41.883 143.731 42.2612 144.511 41.4763C145.738 40.2538 145.545 39.2883 143.933 38.5795L142.413 37.916Z" stroke="#A86975" stroke-width="1.427"/>
<path d="M137.697 40.6486C137.887 40.4392 138.011 40.1789 138.052 39.9007C138.094 39.6225 138.053 39.3389 137.932 39.086C137.29 37.7399 136.62 37.4568 135.92 38.2369C134.76 39.5212 133.478 40.7556 132.075 41.94C131.575 42.3681 131.651 42.6178 132.303 42.6892C134.434 42.927 136.232 42.2468 137.697 40.6486Z" stroke="#A86975" stroke-width="1.427"/>
<path d="M143.564 50.477C143.724 50.515 143.897 50.4902 144.073 50.4039C144.249 50.3176 144.426 50.1716 144.592 49.9742C144.758 49.7768 144.911 49.5318 145.042 49.2533C145.173 48.9748 145.279 48.6682 145.354 48.351C145.43 48.0338 145.473 47.7122 145.482 47.4046C145.491 47.097 145.465 46.8094 145.406 46.5582C145.346 46.3071 145.255 46.0973 145.136 45.9408C145.018 45.7843 144.875 45.6842 144.715 45.6462C144.556 45.6082 144.383 45.633 144.207 45.7193C144.03 45.8056 143.854 45.9516 143.688 46.149C143.522 46.3464 143.369 46.5914 143.238 46.8699C143.107 47.1484 143.001 47.455 142.925 47.7722C142.849 48.0894 142.806 48.411 142.797 48.7186C142.789 49.0262 142.815 49.3138 142.874 49.5649C142.933 49.8161 143.025 50.0259 143.143 50.1824C143.262 50.3389 143.405 50.439 143.564 50.477Z" stroke="#C87592" stroke-width="1.427"/>
<path d="M137.597 50.1953C137.597 49.0675 137.149 47.9859 136.351 47.1884C135.554 46.3909 134.472 45.9429 133.344 45.9429C132.217 45.9429 131.135 46.3909 130.338 47.1884C129.54 47.9859 129.092 49.0675 129.092 50.1953C129.092 51.3231 129.54 52.4048 130.338 53.2022C131.135 53.9997 132.217 54.4478 133.344 54.4478C134.472 54.4478 135.554 53.9997 136.351 53.2022C137.149 52.4048 137.597 51.3231 137.597 50.1953Z" stroke="#F09E9A" stroke-width="1.427"/>
<path d="M117.134 52.1786C118.594 52.3689 119.936 53.2227 121.158 54.7401C121.296 54.9065 121.429 55.0231 121.558 55.0897C121.871 55.2562 122.067 55.2205 122.143 54.9827C122.169 54.8949 122.166 54.7909 122.135 54.6801C122.104 54.5693 122.045 54.4551 121.964 54.3477C119.838 51.5127 117.032 50.5875 113.545 51.5721C113.369 51.6245 113.226 51.7101 113.117 51.829C112.703 52.2999 112.9 52.4545 113.709 52.2928C114.841 52.0645 115.983 52.0264 117.134 52.1786Z" stroke="#CE7C94" stroke-width="1.427"/>
<path d="M123.663 59.8452C123.611 59.7418 123.521 59.6631 123.412 59.6262C123.302 59.5894 123.183 59.5976 123.079 59.6489L120.472 60.9433C120.421 60.9687 120.375 61.0039 120.337 61.047C120.3 61.0901 120.271 61.1401 120.253 61.1943C120.234 61.2485 120.227 61.3057 120.231 61.3627C120.235 61.4197 120.25 61.4754 120.275 61.5266L120.294 61.565C120.346 61.6684 120.436 61.7471 120.545 61.784C120.655 61.8208 120.774 61.8126 120.878 61.7613L123.485 60.4669C123.536 60.4415 123.582 60.4063 123.62 60.3632C123.657 60.3201 123.686 60.2701 123.704 60.2159C123.722 60.1618 123.73 60.1045 123.726 60.0475C123.722 59.9905 123.707 59.9348 123.682 59.8836L123.663 59.8452Z" stroke="#CE7C94" stroke-width="1.427"/>
<path d="M117.526 100.903C118.392 101.574 119.296 101.629 120.237 101.067C121.755 100.168 123.025 98.7985 124.048 96.9577C126.083 93.2903 128.043 89.3804 129.927 85.2278C129.965 85.1414 129.982 85.0469 129.976 84.9525C129.969 84.8581 129.94 84.7667 129.89 84.6864C129.84 84.6061 129.771 84.5393 129.689 84.4919C129.607 84.4445 129.515 84.4179 129.42 84.4144C124.635 84.2289 120.109 82.8471 115.842 80.269C115.805 80.2464 115.763 80.2325 115.719 80.2284C115.676 80.2242 115.632 80.2299 115.591 80.2449C115.55 80.26 115.512 80.2841 115.482 80.3154C115.451 80.3467 115.428 80.3845 115.414 80.426C113.754 85.7011 113.504 91.0167 114.665 96.3726C115.069 98.2325 116.023 99.7427 117.526 100.903Z" stroke="#F77E74" stroke-width="1.427"/>
<path d="M137.468 100.518C138.953 101.564 140.334 101.55 141.614 100.475C143.16 99.1718 144.29 97.5522 145.003 95.6162C145.541 94.1607 145.971 92.277 146.294 89.9653C146.67 87.2445 146.549 84.5166 145.931 81.7815C145.921 81.7392 145.902 81.6997 145.875 81.6658C145.848 81.6318 145.814 81.6043 145.775 81.5851C145.736 81.566 145.693 81.5558 145.65 81.5552C145.606 81.5546 145.563 81.5637 145.524 81.5817C141.01 83.5747 136.272 84.5356 131.311 84.4642C131.257 84.4629 131.204 84.4739 131.156 84.4964C131.107 84.5189 131.064 84.5522 131.03 84.594C130.995 84.6358 130.971 84.685 130.958 84.7379C130.945 84.7907 130.944 84.846 130.954 84.8995C131.72 88.5764 132.759 92.17 134.072 95.6804C134.9 97.897 136.032 99.5095 137.468 100.518Z" stroke="#F77E74" stroke-width="1.427"/>
<path d="M131.861 100.632C131.861 100.394 131.766 100.165 131.597 99.9967C131.429 99.8281 131.2 99.7334 130.962 99.7334C130.723 99.7334 130.494 99.8281 130.326 99.9967C130.157 100.165 130.063 100.394 130.062 100.632C130.063 100.871 130.157 101.1 130.326 101.268C130.494 101.437 130.723 101.531 130.962 101.531C131.2 101.531 131.429 101.437 131.597 101.268C131.766 101.1 131.861 100.871 131.861 100.632Z" stroke="#F77E74" stroke-width="1.427"/>
<path d="M131.009 112.344C131.083 112.138 131.065 111.907 130.958 111.704C130.852 111.501 130.666 111.342 130.441 111.262C130.33 111.222 130.213 111.203 130.096 111.205C129.98 111.208 129.866 111.232 129.761 111.276C129.657 111.32 129.564 111.384 129.487 111.463C129.411 111.542 129.353 111.636 129.316 111.738C129.242 111.945 129.26 112.175 129.367 112.378C129.473 112.581 129.659 112.74 129.883 112.82C129.995 112.86 130.112 112.879 130.229 112.877C130.345 112.875 130.459 112.851 130.564 112.806C130.668 112.762 130.761 112.699 130.838 112.619C130.914 112.54 130.972 112.447 131.009 112.344Z" stroke="#F77E74" stroke-width="1.427"/>
<path d="M93.6383 127.752C89.8092 133.969 85.7304 140.017 81.4019 145.897C81.3679 145.943 81.3414 145.995 81.3242 146.048C81.3071 146.102 81.2996 146.156 81.3023 146.206C81.305 146.257 81.3178 146.303 81.3399 146.342C81.362 146.381 81.3928 146.412 81.4304 146.432C81.6444 146.555 81.8918 146.444 82.1724 146.096C86.4582 140.726 90.5537 134.585 94.4589 127.674C94.5131 127.579 94.5314 127.468 94.5104 127.36C94.4895 127.253 94.4307 127.156 94.3447 127.089C94.1211 126.918 93.9499 126.991 93.831 127.31C93.7549 127.515 93.6907 127.662 93.6383 127.752Z" stroke="#F77E74" stroke-width="1.427"/>
<path d="M87.2384 5.58009C87.1528 5.97014 86.9102 6.22462 86.5107 6.34354C85.1598 6.74786 83.8184 7.30438 82.4865 8.01312C81.5495 8.51257 81.2712 9.25698 81.6517 10.2464C82.2511 11.8256 83.4902 12.1467 85.3691 11.2096C86.8246 10.4866 88.3206 9.8587 89.857 9.32596C91.2031 11.8232 92.2829 14.4298 93.0962 17.1459C91.4932 17.9355 89.8712 18.687 88.2302 19.4005C87.3121 19.8001 86.7057 20.3233 86.4108 20.9702C85.8067 22.2878 86.3727 23.1393 88.1089 23.5246C88.3367 23.5757 88.575 23.5584 88.7939 23.4746L94.3163 21.277C94.5779 24.0216 94.5875 26.1027 94.3449 27.5202C94.088 29.0328 93.1367 30.1125 91.4909 30.7594C89.5835 30.4978 87.8449 29.4918 86.2752 27.7413C80.1724 20.9488 77.3327 13.1455 77.756 4.33147C77.7893 3.59895 78.2055 2.59767 79.0047 1.32764C80.346 0.671223 81.666 0.709279 82.9646 1.4418C84.7531 2.45021 86.1777 3.82964 87.2384 5.58009Z" fill="#FECE2D"/>
<path d="M79.0048 1.32764C78.2057 2.59766 77.7894 3.59894 77.7561 4.33147C77.3328 13.1455 80.1725 20.9488 86.2753 27.7413C87.845 29.4918 89.5836 30.4978 91.491 30.7594C89.4789 32.1151 87.3384 33.2257 85.0695 34.0915C85.0219 33.7632 84.8578 33.5777 84.5772 33.5349C84.1871 33.4731 83.9612 33.4279 83.8994 33.3994C81.6304 32.3814 79.7016 30.719 78.1129 28.412C74.3504 22.9514 72.0315 17.1245 71.1563 10.9313C70.8091 8.46262 71.2253 5.95587 72.4049 3.41106C74.5121 2.42643 76.7121 1.73195 79.0048 1.32764Z" fill="#21A0AA"/>
<path d="M185.851 3.46811C186.974 5.99865 187.211 8.84313 186.564 12.0015C185.114 19.0842 182.036 25.0443 177.332 29.8818C175.905 31.3516 174.285 32.2387 172.473 32.5432C170.699 31.8297 169.747 30.4526 169.619 28.412C169.495 26.438 169.588 24.697 169.897 23.1892C171.239 16.6583 174.095 10.8861 178.466 5.8726C179.289 4.93079 180.233 4.13643 181.299 3.48952C182.807 2.581 184.324 2.57386 185.851 3.46811ZM179.94 13.6588C180.284 13.8213 180.713 13.7665 181.133 13.5065C181.554 13.2464 181.931 12.8023 182.182 12.272C182.306 12.0094 182.395 11.7335 182.445 11.46C182.494 11.1866 182.503 10.921 182.47 10.6784C182.438 10.4358 182.364 10.221 182.255 10.0461C182.145 9.87125 182.001 9.73983 181.83 9.65935C181.486 9.49681 181.057 9.5516 180.637 9.81168C180.216 10.0718 179.839 10.5158 179.588 11.0462C179.464 11.3088 179.375 11.5847 179.325 11.8581C179.276 12.1315 179.267 12.3971 179.3 12.6397C179.332 12.8823 179.406 13.0972 179.516 13.272C179.625 13.4469 179.77 13.5783 179.94 13.6588ZM174.589 25.1316C174.756 25.2062 174.945 25.2284 175.144 25.1968C175.343 25.1653 175.548 25.0806 175.749 24.9477C175.95 24.8148 176.143 24.6362 176.315 24.4221C176.487 24.2081 176.636 23.9628 176.754 23.7002C176.991 23.1699 177.085 22.6015 177.014 22.12C176.944 21.6385 176.715 21.2833 176.378 21.1326C176.212 21.058 176.023 21.0359 175.824 21.0674C175.625 21.099 175.419 21.1836 175.218 21.3166C175.017 21.4495 174.825 21.6281 174.653 21.8421C174.48 22.0561 174.331 22.3014 174.214 22.564C173.977 23.0943 173.883 23.6627 173.953 24.1443C174.024 24.6258 174.253 24.9809 174.589 25.1316Z" fill="#FECE2D"/>
<path d="M72.4049 3.41113C71.2252 5.95594 70.809 8.46269 71.1563 10.9314C72.0315 17.1246 74.3504 22.9515 78.1129 28.4121C79.7016 30.7191 81.6304 32.3815 83.8994 33.3994C83.9612 33.428 84.1871 33.4732 84.5772 33.535C84.8578 33.5778 85.0219 33.7633 85.0695 34.0915C84.5748 34.3817 84.0397 34.5196 83.4641 34.5054C81.8849 33.692 80.5079 32.6217 79.333 31.2946C75.6561 27.1563 73.0042 22.4354 71.3775 17.1317C70.0266 12.7175 69.7745 8.46031 70.6212 4.36008C71.1491 3.90344 71.7437 3.58713 72.4049 3.41113Z" fill="#FBFCFE"/>
<path d="M185.851 3.46826C188.129 3.99149 190.329 4.74543 192.451 5.73006C193.626 9.38793 193.678 13.0719 192.608 16.7821C191.209 21.6339 188.993 26.0766 185.958 30.1103C184.455 32.1081 182.74 33.6683 180.814 34.7908C180.062 35.2284 179.116 35.4805 177.974 35.5471C175.962 34.8669 174.128 33.8657 172.473 32.5433C174.285 32.2389 175.905 31.3518 177.332 29.882C182.036 25.0444 185.114 19.0844 186.564 12.0017C187.211 8.84328 186.974 5.9988 185.851 3.46826Z" fill="#21A0AA"/>
<path d="M89.8569 9.32617C88.3205 9.85891 86.8245 10.4868 85.369 11.2098C83.4901 12.1469 82.251 11.8258 81.6517 10.2466C81.2711 9.25719 81.5494 8.51278 82.4865 8.01333C83.8183 7.30459 85.1597 6.74807 86.5106 6.34375C86.9101 6.22483 87.1527 5.97035 87.2383 5.5803L91.6977 4.1105C91.9351 4.02821 92.1703 4.02565 92.3541 4.10336C94.3234 4.92626 94.692 6.00365 93.46 7.33551C93.1128 7.71129 92.5349 8.06804 91.7263 8.40576C91.0841 8.67689 90.461 8.98369 89.8569 9.32617Z" fill="#9B3C82"/>
<path d="M70.621 4.35986C69.7743 8.4601 70.0264 12.7173 71.3773 17.1315C73.0041 22.4352 75.6559 27.1561 79.3328 31.2944C80.5077 32.6215 81.8848 33.6918 83.464 34.5052C78.265 36.1605 72.9732 36.5077 67.5886 35.5469C63.7833 34.8714 60.613 33.1067 58.0777 30.2527C57.9547 30.1158 57.8085 30.0312 57.671 30.0173L57.4213 29.9887C57.6306 29.6462 57.6211 29.3561 57.3928 29.1182C57.1216 28.8281 56.9694 28.6545 56.9361 28.5974L55.8159 26.4212C55.0073 22.3686 55.6756 18.6465 57.8209 15.255C60.9174 10.3699 65.1842 6.73819 70.621 4.35986Z" fill="#21A0AA"/>
<path d="M192.451 5.72998C193.107 5.92976 193.652 6.29602 194.085 6.82876C194.579 9.64946 194.57 12.3251 194.056 14.8556C192.472 22.6613 188.712 29.3063 182.776 34.7907C182.048 35.4614 181.051 35.9609 179.786 36.2891C179.111 36.2035 178.507 35.9561 177.974 35.5471C179.115 35.4805 180.062 35.2284 180.814 34.7907C182.74 33.6682 184.455 32.108 185.958 30.1102C188.993 26.0766 191.209 21.6338 192.608 16.7821C193.678 13.0719 193.626 9.38785 192.451 5.72998Z" fill="#FBFCFE"/>
<path d="M194.085 6.82861C201.339 10.2011 206.086 15.7307 208.326 23.4174C208.597 24.3497 208.597 26.0051 208.326 28.3834C207.974 29.3205 207.525 30.2028 206.978 31.0305C206.958 31.0638 206.861 31.1732 206.685 31.3587C206.504 31.5442 206.516 31.7416 206.721 31.9509C203.876 35.2901 200.266 37.2855 195.89 37.9371C190.377 38.7553 185.009 38.2059 179.786 36.2889C181.051 35.9607 182.048 35.4613 182.776 34.7906C188.712 29.3062 192.472 22.6611 194.056 14.8555C194.57 12.3249 194.579 9.64931 194.085 6.82861Z" fill="#21A0AA"/>
<path d="M179.588 11.0464C179.066 12.1508 179.224 13.3205 179.94 13.659C180.656 13.9974 181.659 13.3765 182.181 12.2721C182.704 11.1678 182.546 9.99806 181.83 9.65957C181.114 9.32109 180.11 9.94198 179.588 11.0464Z" fill="#9B3C82"/>
<path d="M142.299 30.5525L138.396 31.7155C138.291 31.747 138.18 31.7469 138.077 31.715C137.974 31.6832 137.884 31.6212 137.818 31.5372C136.938 30.4336 137.081 29.4181 138.246 28.4905C138.422 28.3526 138.408 28.3193 138.203 28.3906C135.573 29.2992 133.245 30.6976 131.218 32.586C131.033 32.7525 131.061 32.8143 131.304 32.7715C131.623 32.7097 131.939 32.6336 132.253 32.5432C132.824 32.372 133.249 32.3244 133.53 32.4005C134.034 32.5289 134.339 32.8643 134.443 33.4065C134.48 33.6125 134.424 33.8501 134.286 34.0701C133.116 35.8966 131.946 37.7232 130.776 39.5497C130.143 40.5391 129.549 40.7151 128.992 40.0777C128.712 39.759 128.533 39.3167 128.457 38.7506C128.286 37.4616 128.488 36.2129 129.064 35.0048C129.268 34.5862 129.209 34.522 128.885 34.8121C128.838 34.8549 128.8 34.9049 128.771 34.9619C127.035 38.2012 126.148 41.6665 126.11 45.3576C126.091 46.9178 125.986 48.0784 125.796 48.8395C125.42 50.3331 124.583 50.6613 123.284 49.8241C120.278 47.8787 117.122 46.806 113.816 46.6062C112.974 44.5323 111.835 42.6582 110.398 40.9839C110.389 40.9696 109.504 40.1372 107.744 38.4866C104.862 35.7801 104.094 32.6288 105.44 29.0328C106.196 27.0207 107.347 25.5842 108.893 24.7233C110.634 23.7481 112.625 23.5507 114.865 24.1311C114.908 24.1425 114.953 24.1429 114.996 24.1324C115.039 24.1219 115.078 24.1008 115.111 24.0709C115.144 24.0411 115.168 24.0035 115.183 23.9616C115.197 23.9198 115.201 23.875 115.193 23.8314C114.832 21.748 115.157 19.9095 116.171 18.316C117.098 16.8558 118.478 15.7998 120.309 15.1481C123.296 14.0874 126.091 14.7414 128.693 17.1102C128.762 17.1728 128.853 17.2056 128.947 17.2016C129.04 17.1976 129.128 17.1571 129.192 17.0888C131.28 14.877 133.625 13.9851 136.227 14.4132C138.696 14.8223 140.579 16.0305 141.878 18.0378C143.538 20.5969 143.291 23.6887 141.136 27.3133C141.074 27.4191 141.042 27.5453 141.042 27.6808C141.042 27.8163 141.074 27.9571 141.136 28.091L142.299 30.5525ZM116.463 24.0169C116.192 23.76 115.921 23.7196 115.65 23.8956C115.616 23.9174 115.59 23.9479 115.572 23.9845C115.555 24.0211 115.547 24.0628 115.55 24.1061C115.553 24.1494 115.566 24.1931 115.588 24.2334C115.611 24.2737 115.642 24.3096 115.678 24.338C116.91 25.2512 117.902 26.3714 118.654 27.6985C118.715 27.8042 118.803 27.8884 118.9 27.9356C118.997 27.9828 119.097 27.9899 119.182 27.9554C119.41 27.865 119.455 27.6605 119.317 27.3418C118.856 26.2668 118.071 25.3083 116.963 24.4664C116.929 24.4426 116.763 24.2928 116.463 24.0169Z" fill="#5B2448"/>
<path d="M94.3162 21.2771L88.7937 23.4747C88.5749 23.5585 88.3366 23.5758 88.1088 23.5246C86.3726 23.1394 85.8066 22.2879 86.4107 20.9703C86.7056 20.3234 87.312 19.8002 88.2301 19.4006C89.8711 18.6871 91.4931 17.9356 93.0961 17.146C93.8572 16.9747 94.5778 16.6893 95.258 16.2898C97.0275 15.2386 98.3142 15.612 99.1181 17.41C99.5176 18.2995 99.2941 18.944 98.4474 19.3435L94.3162 21.2771Z" fill="#9B3C82"/>
<path d="M174.214 22.564C173.72 23.6683 173.888 24.8178 174.59 25.1316C175.291 25.4453 176.26 24.8045 176.754 23.7002C177.248 22.5959 177.08 21.4463 176.378 21.1326C175.677 20.8188 174.708 21.4597 174.214 22.564Z" fill="#9B3C82"/>
<path d="M116.963 24.4662C118.071 25.3082 118.856 26.2666 119.317 27.3416C119.455 27.6603 119.41 27.8649 119.182 27.9552C119.097 27.9897 118.997 27.9827 118.9 27.9355C118.803 27.8882 118.715 27.804 118.654 27.6984C117.902 26.3713 116.91 25.2511 115.679 24.3378C115.642 24.3094 115.611 24.2736 115.589 24.2332C115.566 24.1929 115.553 24.1493 115.55 24.106C115.548 24.0627 115.555 24.021 115.572 23.9843C115.59 23.9477 115.616 23.9172 115.65 23.8954C115.921 23.7194 116.192 23.7599 116.463 24.0167C116.763 24.2926 116.93 24.4424 116.963 24.4662Z" fill="#9B3C82"/>
<path d="M46.3907 30.5523C45.9103 32.2599 45.1873 33.8558 44.2217 35.3399C43.4606 36.1961 42.721 37.0689 42.0027 37.9584C41.7363 38.2866 41.47 38.484 41.2036 38.5506C40.6661 38.6838 40.3641 38.396 40.2975 37.6873C40.0263 34.6858 40.2047 31.1279 40.8326 27.0134C42.0217 25.672 43.2537 25.3081 44.5285 25.9217C45.3038 26.3022 45.8437 26.9515 46.1481 27.8696C46.424 28.7162 46.5049 29.6105 46.3907 30.5523Z" fill="#F4ADA2"/>
<path d="M55.816 26.4214L56.9362 28.5975C56.9695 28.6546 57.1217 28.8283 57.3929 29.1184C57.6212 29.3562 57.6307 29.6464 57.4214 29.9889L51.5636 32.5147C51.6159 31.2208 51.1902 30.6215 50.2864 30.7166C49.8393 30.7642 49.3256 31.0211 48.7453 31.4872C47.2517 32.6621 45.9317 34.0154 44.7853 35.547C44.6569 35.3663 44.469 35.2973 44.2217 35.3401C45.1873 33.856 45.9103 32.2602 46.3907 30.5525L55.816 26.4214Z" fill="#65AFEE"/>
<path d="M40.6542 27.0136C40.7112 27.2704 40.6637 27.4393 40.5115 27.5201C40.3949 27.5807 40.2938 27.649 40.2185 27.718C40.1432 27.787 40.0966 27.8542 40.0834 27.9126C39.5268 30.4859 39.2248 33.0902 39.1772 35.7254C39.1392 37.785 38.78 39.2429 38.0998 40.0991C36.787 41.7592 35.9142 41.5546 35.4813 39.4855C34.8962 36.66 34.7678 33.8227 35.096 30.9735C35.115 30.7927 35.1079 30.6358 35.0746 30.5026C34.9414 29.9936 34.7559 29.9389 34.5181 30.3385C34.4467 30.4621 34.4039 30.6167 34.3897 30.8022C34.1376 33.7038 33.9235 36.6101 33.7475 39.5212C33.7047 40.2299 33.6262 40.7841 33.5121 41.1836C33.1268 42.5155 32.5393 42.77 31.7497 41.9471C31.4025 41.5856 31.129 41.0742 30.9292 40.4131C30.2537 38.1441 29.966 35.8205 30.0659 33.4422C30.0683 33.3867 30.0613 33.3312 30.0455 33.2795C30.0296 33.2277 30.0053 33.1809 29.9741 33.1423C29.9429 33.1036 29.9057 33.0741 29.8649 33.0557C29.824 33.0372 29.7806 33.0304 29.7376 33.0355C29.5521 33.0545 29.4451 33.1782 29.4166 33.4065C29.1312 35.6849 29.2501 37.9444 29.7733 40.1847C30.1539 41.8068 29.9612 42.8627 29.1954 43.3527C28.4914 43.7998 27.8516 43.6262 27.2761 42.8318L26.3557 41.0766C26.1559 38.7839 26.1654 37.0002 26.3842 35.7254C26.6553 34.1367 27.8374 33.0426 29.9303 32.4433C30.3004 32.3381 30.6159 32.0866 30.8079 31.7441C31.5357 30.4312 32.8984 29.7439 34.8962 29.682C35.0365 29.678 35.1729 29.6335 35.2892 29.5539C35.4056 29.4742 35.497 29.3627 35.5527 29.2325C36.5658 26.8304 38.2663 26.0908 40.6542 27.0136Z" fill="#F4ADA2"/>
<path d="M40.6541 27.0137H40.8324C40.2046 31.1282 40.0262 34.6862 40.2973 37.6876C40.3639 38.3963 40.6659 38.6841 41.2034 38.5509C41.4698 38.4843 41.7362 38.2869 42.0026 37.9587C42.7208 37.0692 43.4605 36.1964 44.2215 35.3402C44.4689 35.2974 44.6568 35.3664 44.7852 35.5471C41.7838 39.771 40.0642 42.6393 39.6266 44.1519C39.3888 44.97 39.1319 45.177 38.856 44.7726C38.7995 44.6924 38.7672 44.5919 38.7622 44.4806C38.7572 44.3694 38.7797 44.2512 38.8275 44.1376C39.3174 42.9675 39.8573 41.8235 40.4471 40.7057C41.0608 39.5451 40.8443 39.0123 39.7979 39.1075C39.7007 39.1184 39.6076 39.1622 39.5301 39.2333C39.4527 39.3044 39.3944 39.3996 39.3626 39.507C39.0772 40.4679 38.5421 41.2194 37.7573 41.7617C37.2626 42.1042 36.7917 42.185 36.3445 42.0043C35.8498 41.814 35.4717 41.4216 35.2101 40.827C35.0293 40.4274 34.8248 40.4298 34.5965 40.8341L33.4049 42.9461C33.3406 43.059 33.2957 43.1729 33.2734 43.2793C33.2512 43.3856 33.2522 43.4816 33.2765 43.5597C34.2183 46.4755 34.5489 49.4603 34.2683 52.5141C34.2445 52.7519 34.1755 52.9612 34.0613 53.142C33.657 53.7794 33.3883 53.7508 33.2551 53.0564C33.217 52.8708 33.2147 52.6449 33.248 52.3785C33.5476 49.8765 33.3978 47.4031 32.7984 44.9582C32.5321 43.8879 31.878 43.0579 30.8363 42.4681C30.7982 42.4471 30.7559 42.4351 30.7124 42.433C30.669 42.4309 30.6257 42.4388 30.5858 42.456C30.5459 42.4732 30.5104 42.4993 30.4821 42.5323C30.4538 42.5653 30.4334 42.6043 30.4225 42.6464C30.0182 44.1638 29.1572 44.7703 27.8396 44.4658C27.1214 43.9949 26.9335 43.4503 27.276 42.8319C27.8515 43.6263 28.4913 43.7999 29.1953 43.3528C29.9611 42.8628 30.1537 41.8069 29.7732 40.1848C29.25 37.9445 29.1311 35.6851 29.4165 33.4066C29.445 33.1783 29.552 33.0546 29.7375 33.0356C29.7805 33.0305 29.8239 33.0374 29.8647 33.0558C29.9056 33.0742 29.9428 33.1038 29.974 33.1424C30.0052 33.181 30.0295 33.2278 30.0453 33.2796C30.0612 33.3314 30.0681 33.3868 30.0658 33.4423C29.9659 35.8206 30.2536 38.1442 30.9291 40.4132C31.1289 41.0743 31.4024 41.5857 31.7496 41.9472C32.5392 42.7701 33.1267 42.5156 33.5119 41.1837C33.6261 40.7842 33.7046 40.23 33.7474 39.5213C33.9234 36.6102 34.1374 33.7039 34.3895 30.8024C34.4038 30.6168 34.4466 30.4622 34.518 30.3386C34.7558 29.939 34.9413 29.9937 35.0745 30.5027C35.1078 30.6359 35.1149 30.7928 35.0959 30.9736C34.7677 33.8228 34.8961 36.6602 35.4812 39.4856C35.9141 41.5548 36.7869 41.7593 38.0997 40.0992C38.7799 39.243 39.1391 37.7851 39.1771 35.7255C39.2247 33.0903 39.5267 30.486 40.0833 27.9127C40.0965 27.8543 40.1431 27.7871 40.2184 27.7181C40.2937 27.6491 40.3948 27.5808 40.5114 27.5203C40.6636 27.4394 40.7111 27.2705 40.6541 27.0137Z" fill="#A74B86"/>
<path d="M142.299 30.5524C144.592 35.4517 147.886 39.4568 152.181 42.5677C154.811 44.4704 156.3 45.6714 156.647 46.1709C157.875 47.9403 158.022 50.0333 157.09 52.4496C156.519 53.9242 155.484 55.2608 153.986 56.4595C150.637 59.1422 146.861 60.9712 142.656 61.9463C138.418 62.3744 134.538 61.8749 131.019 60.4479C130.296 60.1578 130.15 60.3362 130.583 60.9831C132.196 63.3994 134.446 64.8502 137.333 65.3354C140.349 65.8396 142.361 66.0774 143.369 66.0489C144.387 70.972 145.348 75.9071 146.252 80.854C146.29 81.049 146.468 81.118 146.787 81.0609C148.076 86.6595 147.576 92.0845 145.289 97.3358C144.313 99.5857 142.924 101.063 141.122 101.767C139.485 102.409 138.02 102.178 136.727 101.075C135.533 100.047 134.65 98.9697 134.079 97.8424C132.557 94.8457 131.42 91.516 130.669 87.8534C130.621 87.6203 130.574 87.6179 130.526 87.8463C129.08 94.7672 127.96 102.782 127.166 111.891C126.79 116.186 128.521 118.795 132.36 119.718C132.574 119.771 132.745 119.861 132.874 119.989C133.326 120.441 133.24 120.674 132.617 120.689C132.431 120.689 132.22 120.66 131.982 120.603C127.739 119.523 125.777 116.679 126.095 112.07C126.623 104.459 127.61 97.3691 129.056 90.8002C129.104 90.5814 129.135 90.3721 129.149 90.1723C129.273 88.2839 129.052 88.1483 128.486 89.7656C127.054 93.8658 124.88 97.4737 121.964 100.589C120.961 101.655 119.957 102.195 118.953 102.209C117.621 102.223 116.492 101.588 115.564 100.304C114.684 99.0863 114.075 97.7687 113.738 96.3512C113.528 95.4855 113.331 94.0727 113.145 92.113C112.798 88.4646 113.205 84.7259 114.366 80.8968C114.556 80.2689 114.898 79.9074 115.393 79.8123L118.825 62.0747C118.843 61.978 118.84 61.8785 118.816 61.7827C118.792 61.687 118.747 61.5974 118.685 61.5197C118.623 61.4421 118.545 61.3782 118.456 61.3324C118.367 61.2866 118.269 61.26 118.168 61.2542C115.495 61.1258 113.291 60.3409 111.554 58.8997C109.728 57.3871 108.765 55.4582 108.665 53.1132C108.527 50.0356 110.244 47.8666 113.816 46.6061C117.122 46.8059 120.278 47.8785 123.284 49.824C124.583 50.6611 125.42 50.3329 125.796 48.8393C125.986 48.0783 126.091 46.9177 126.11 45.3575C126.148 41.6663 127.035 38.2011 128.771 34.9618C128.8 34.9047 128.838 34.8548 128.885 34.812C129.209 34.5218 129.268 34.586 129.064 35.0046C128.488 36.2128 128.286 37.4614 128.457 38.7505C128.533 39.3165 128.712 39.7589 128.992 40.0776C129.549 40.715 130.143 40.539 130.776 39.5496C131.946 37.723 133.116 35.8965 134.286 34.0699C134.424 33.8499 134.48 33.6123 134.443 33.4064C134.339 32.8641 134.034 32.5288 133.53 32.4003C133.249 32.3242 132.824 32.3718 132.253 32.5431C131.939 32.6334 131.623 32.7095 131.304 32.7714C131.061 32.8142 131.033 32.7523 131.218 32.5859C133.245 30.6975 135.573 29.299 138.203 28.3905C138.408 28.3191 138.422 28.3524 138.246 28.4904C137.081 29.4179 136.938 30.4335 137.818 31.537C137.884 31.6211 137.974 31.683 138.077 31.7149C138.18 31.7467 138.291 31.7469 138.396 31.7154L142.299 30.5524ZM142.413 37.9157C142.356 37.8908 142.306 37.8513 142.268 37.8011C142.231 37.7508 142.208 37.6916 142.2 37.6295C142.193 37.5673 142.202 37.5043 142.227 37.4468C142.252 37.3894 142.292 37.3394 142.342 37.3021C143.203 36.6694 143.69 35.9583 143.804 35.1687C143.938 34.2935 143.569 34.058 142.699 34.4624L139.973 35.7395C139.876 35.7855 139.79 35.8512 139.72 35.9314C139.65 36.0117 139.6 36.1042 139.572 36.2018C139.544 36.2994 139.54 36.3994 139.56 36.4937C139.581 36.5881 139.624 36.6743 139.688 36.7455C140.629 37.7873 141.84 38.6149 143.319 39.2285C143.53 39.3154 143.703 39.4753 143.806 39.6794C143.909 39.8835 143.937 40.1183 143.883 40.3416C143.521 41.8827 143.731 42.2609 144.511 41.476C145.738 40.2536 145.545 39.288 143.933 38.5792L142.413 37.9157ZM137.697 40.6484C137.887 40.439 138.011 40.1787 138.052 39.9005C138.094 39.6223 138.053 39.3387 137.932 39.0858C137.29 37.7397 136.62 37.4567 135.92 38.2368C134.76 39.521 133.478 40.7554 132.075 41.9398C131.575 42.3679 131.651 42.6176 132.303 42.689C134.434 42.9268 136.232 42.2466 137.697 40.6484ZM143.564 50.477C143.724 50.515 143.897 50.4902 144.073 50.4039C144.249 50.3177 144.426 50.1717 144.592 49.9742C144.758 49.7768 144.911 49.5318 145.042 49.2533C145.173 48.9748 145.279 48.6682 145.354 48.351C145.43 48.0338 145.473 47.7122 145.482 47.4046C145.491 47.097 145.465 46.8094 145.406 46.5583C145.346 46.3071 145.255 46.0973 145.136 45.9408C145.018 45.7843 144.875 45.6842 144.715 45.6462C144.556 45.6082 144.383 45.633 144.207 45.7193C144.03 45.8056 143.854 45.9516 143.688 46.149C143.522 46.3464 143.369 46.5914 143.238 46.8699C143.107 47.1484 143.001 47.455 142.925 47.7722C142.85 48.0894 142.806 48.411 142.797 48.7186C142.789 49.0262 142.815 49.3138 142.874 49.565C142.933 49.8161 143.025 50.0259 143.143 50.1824C143.262 50.3389 143.405 50.439 143.564 50.477ZM137.597 50.195C137.597 49.0672 137.149 47.9855 136.351 47.1881C135.554 46.3906 134.472 45.9425 133.345 45.9425C132.217 45.9425 131.135 46.3906 130.338 47.1881C129.54 47.9855 129.092 49.0672 129.092 50.195C129.092 51.3228 129.54 52.4044 130.338 53.2019C131.135 53.9994 132.217 54.4474 133.345 54.4474C134.472 54.4474 135.554 53.9994 136.351 53.2019C137.149 52.4044 137.597 51.3228 137.597 50.195ZM117.134 52.1785C118.594 52.3688 119.936 53.2226 121.158 54.74C121.296 54.9064 121.429 55.023 121.558 55.0896C121.872 55.2561 122.067 55.2204 122.143 54.9825C122.169 54.8948 122.166 54.7908 122.135 54.68C122.104 54.5692 122.045 54.455 121.964 54.3475C119.838 51.5126 117.032 50.5874 113.545 51.572C113.369 51.6244 113.226 51.71 113.117 51.8289C112.703 52.2998 112.9 52.4544 113.709 52.2927C114.841 52.0644 115.983 52.0263 117.134 52.1785ZM123.663 59.8449C123.611 59.7415 123.521 59.6628 123.412 59.6259C123.302 59.5891 123.183 59.5973 123.079 59.6486L120.472 60.943C120.421 60.9684 120.375 61.0036 120.337 61.0467C120.3 61.0898 120.271 61.1398 120.253 61.194C120.235 61.2482 120.227 61.3054 120.231 61.3624C120.235 61.4194 120.25 61.4751 120.275 61.5263L120.294 61.5647C120.346 61.6681 120.436 61.7469 120.545 61.7837C120.655 61.8205 120.774 61.8123 120.878 61.761L123.485 60.4667C123.536 60.4412 123.582 60.406 123.62 60.3629C123.657 60.3198 123.686 60.2698 123.704 60.2156C123.723 60.1615 123.73 60.1042 123.726 60.0472C123.722 59.9902 123.707 59.9345 123.682 59.8833L123.663 59.8449ZM117.526 100.903C118.392 101.574 119.296 101.629 120.238 101.067C121.755 100.168 123.025 98.7985 124.048 96.9576C126.084 93.2903 128.043 89.3803 129.927 85.2277C129.966 85.1414 129.982 85.0468 129.976 84.9524C129.969 84.858 129.94 84.7667 129.89 84.6864C129.84 84.6061 129.771 84.5393 129.689 84.4918C129.607 84.4444 129.515 84.4178 129.42 84.4143C124.635 84.2288 120.109 82.847 115.842 80.2689C115.805 80.2463 115.763 80.2325 115.719 80.2283C115.676 80.2241 115.632 80.2298 115.591 80.2449C115.55 80.2599 115.513 80.284 115.482 80.3153C115.451 80.3467 115.428 80.3844 115.414 80.4259C113.754 85.701 113.505 91.0166 114.665 96.3726C115.069 98.2324 116.023 99.7427 117.526 100.903ZM137.469 100.518C138.953 101.564 140.334 101.55 141.614 100.475C143.16 99.1719 144.29 97.5522 145.003 95.6163C145.541 94.1607 145.971 92.2771 146.295 89.9654C146.67 87.2445 146.549 84.5166 145.931 81.7815C145.921 81.7393 145.902 81.6998 145.875 81.6658C145.848 81.6318 145.814 81.6043 145.775 81.5852C145.736 81.5661 145.693 81.5558 145.65 81.5553C145.606 81.5547 145.563 81.5637 145.524 81.5818C141.01 83.5748 136.272 84.5356 131.311 84.4643C131.258 84.463 131.205 84.474 131.156 84.4965C131.107 84.5189 131.064 84.5523 131.03 84.5941C130.996 84.6359 130.971 84.685 130.958 84.7379C130.945 84.7908 130.944 84.846 130.954 84.8995C131.72 88.5764 132.759 92.1701 134.072 95.6805C134.9 97.8971 136.032 99.5096 137.469 100.518Z" fill="#F4ADA2"/>
<path d="M208.326 28.3833L219.892 33.4063C220.192 35.0379 220.746 36.5838 221.554 38.0441C221.573 38.3199 221.445 38.4484 221.169 38.4294C219.728 36.7455 218.479 35.4874 217.423 34.6549C215.739 33.3326 214.838 33.6893 214.719 35.7252L206.721 31.9508C206.516 31.7415 206.504 31.5441 206.685 31.3586C206.861 31.1731 206.959 31.0637 206.978 31.0304C207.525 30.2027 207.974 29.3204 208.326 28.3833Z" fill="#65AFEE"/>
<path d="M225.479 30.5523C225.878 33.9438 225.997 37.34 225.835 40.741C225.812 41.1644 225.712 41.4831 225.536 41.6971C225.165 42.1395 224.741 42.0396 224.266 41.3975C223.409 40.2416 222.506 39.1238 221.554 38.044C220.746 36.5837 220.192 35.0378 219.892 33.4063C219.802 32.1125 220.108 31.0113 220.812 30.1028C221.412 29.3179 222.161 28.9588 223.06 29.0254C224.025 29.0967 224.832 29.6057 225.479 30.5523Z" fill="#F4ADA2"/>
<path d="M231.336 33.4351C231.137 34.4863 231.077 35.547 231.158 36.6173C231.31 38.558 231.17 40.4583 230.737 42.3181C230.556 43.0792 230.321 43.6785 230.031 44.1161C229.246 45.2958 228.432 45.0556 227.59 43.3955C226.934 42.0969 226.694 40.0754 226.87 37.3308C227.022 34.9572 226.727 32.6478 225.985 30.4027C227.931 29.6083 229.372 30.0602 230.309 31.7583C230.842 32.7144 231.184 33.2733 231.336 33.4351Z" fill="#F4ADA2"/>
<path d="M225.985 30.4028C226.727 32.648 227.022 34.9573 226.87 37.3309C226.694 40.0755 226.934 42.0971 227.591 43.3956C228.433 45.0557 229.246 45.2959 230.031 44.1163C230.321 43.6787 230.556 43.0793 230.737 42.3182C231.17 40.4584 231.31 38.5581 231.158 36.6174C231.077 35.5472 231.137 34.4864 231.337 33.4352C231.455 33.3972 231.574 33.3972 231.693 33.4352C232.036 39.4191 232.333 43.2149 232.585 44.8226C232.794 46.1355 233.282 46.4565 234.048 45.7859C234.333 45.5385 234.564 45.177 234.74 44.7013C235.701 42.166 236.181 39.5309 236.181 36.7958C236.324 36.6531 236.493 36.6031 236.688 36.6459C236.902 39.2669 236.781 41.8688 236.324 44.4516C236.191 45.2079 236.181 45.8144 236.295 46.271C236.633 47.6314 237.408 47.7432 238.621 46.6064L239.392 47.4982L239.335 47.6766C239.021 47.4102 238.762 47.3888 238.557 47.6124C238.362 47.8312 238.26 47.9454 238.25 47.9549C237.289 48.6541 236.326 48.2308 235.361 46.6848C234.895 45.9333 234.469 45.9571 234.084 46.7562C232.58 49.8908 231.995 53.035 232.328 56.1886C232.352 56.417 232.352 56.6001 232.328 56.7381C232.247 57.1804 232.06 57.2803 231.765 57.0377C231.609 56.9053 231.502 56.6856 231.465 56.4241C231.084 53.5939 231.294 51.1085 232.093 48.9681C232.588 47.6552 232.54 46.535 231.95 45.6075C231.812 45.3934 231.738 45.1746 231.729 44.9511C231.681 43.9236 231.434 43.6953 230.987 44.2661C230.711 44.6181 230.54 44.825 230.473 44.8868C229.018 46.2758 227.838 45.9476 226.934 43.9022C226.216 42.2754 225.7 42.1542 225.386 43.5383C225.336 43.7532 225.377 43.9888 225.5 44.1947C226.418 45.7407 226.863 46.8561 226.834 47.5411C226.782 48.6922 226.544 48.8872 226.121 48.1261C226.045 47.9834 225.971 47.7955 225.9 47.5625C225.219 45.3792 224.133 43.2624 222.639 41.2123C222.135 40.5131 221.645 39.5856 221.169 38.4297C221.445 38.4487 221.574 38.3203 221.554 38.0444C222.506 39.1242 223.41 40.242 224.266 41.3978C224.741 42.04 225.165 42.1399 225.536 41.6975C225.712 41.4835 225.812 41.1648 225.835 40.7414C225.997 37.3404 225.878 33.9442 225.479 30.5527L225.985 30.4028Z" fill="#A74B86"/>
<path d="M51.5636 32.5148C48.7239 41.9615 46.8117 51.5938 45.8271 61.4115C45.4941 64.7269 45.1136 70.8534 44.6855 79.7912C44.3335 87.1164 43.7722 94.4274 43.0016 101.724C42.2453 104.512 41.5746 107.318 40.9895 110.143C40.8801 110.676 41.0014 110.809 41.3534 110.543C41.4486 110.472 41.5223 110.369 41.5746 110.236C42.3975 108.034 43.042 105.779 43.5082 103.472C43.6271 102.873 43.5581 102.29 43.3013 101.724L45.1136 99.9118C45.5226 100.04 45.8294 100.288 46.034 100.654C50.8858 110.167 54.6221 119.68 57.243 129.194C58.2229 132.757 58.9459 136.859 59.4121 141.502C57.4476 142.244 55.4165 142.729 53.3188 142.957C47.3872 143.956 41.753 143.992 36.416 143.064C30.356 142.008 24.9525 139.547 20.2053 135.679C17.5559 133.52 15.4939 131.035 14.0193 128.223C12.4972 125.308 11.4602 122.18 10.9085 118.841C9.15802 108.215 9.34353 97.6263 11.465 87.076C14.2191 73.3959 18.6071 60.2628 24.629 47.6767L27.8398 44.4659C29.1574 44.7703 30.0183 44.1639 30.4226 42.6465C30.4336 42.6044 30.4539 42.5654 30.4822 42.5324C30.5105 42.4994 30.546 42.4733 30.5859 42.4561C30.6258 42.4389 30.6692 42.431 30.7126 42.4331C30.756 42.4352 30.7984 42.4472 30.8365 42.4681C31.8782 43.058 32.5322 43.888 32.7986 44.9582C33.3979 47.4031 33.5478 49.8766 33.2481 52.3786C33.2148 52.645 33.2172 52.8709 33.2552 53.0564C33.3884 53.7509 33.6572 53.7794 34.0615 53.142C34.1756 52.9613 34.2446 52.752 34.2684 52.5142C34.549 49.4604 34.2185 46.4756 33.2766 43.5598C33.2523 43.4816 33.2513 43.3857 33.2736 43.2793C33.2958 43.173 33.3408 43.059 33.4051 42.9462L34.5966 40.8342C34.8249 40.4299 35.0295 40.4275 35.2102 40.8271C35.4718 41.4216 35.85 41.8141 36.3447 42.0043C36.7918 42.1851 37.2627 42.1042 37.7574 41.7617C38.5422 41.2195 39.0774 40.4679 39.3628 39.5071C39.3946 39.3997 39.4529 39.3044 39.5303 39.2333C39.6077 39.1623 39.7009 39.1185 39.798 39.1075C40.8445 39.0124 41.0609 39.5452 40.4473 40.7058C39.8575 41.8236 39.3176 42.9676 38.8276 44.1377C38.7799 44.2513 38.7574 44.3695 38.7624 44.4807C38.7674 44.5919 38.7997 44.6925 38.8562 44.7727C39.1321 45.177 39.3889 44.9701 39.6268 44.152C40.0644 42.6394 41.7839 39.7711 44.7854 35.5472C45.9317 34.0155 47.2517 32.6623 48.7453 31.4874C49.3256 31.0212 49.8393 30.7644 50.2864 30.7168C51.1902 30.6217 51.6159 31.221 51.5636 32.5148Z" fill="#F4ADA2"/>
<path d="M231.693 33.4352C234.01 33.4209 235.506 34.5411 236.181 36.7958C236.181 39.5308 235.701 42.166 234.74 44.7013C234.564 45.177 234.333 45.5385 234.048 45.7858C233.282 46.4565 232.794 46.1354 232.585 44.8226C232.333 43.2149 232.036 39.4191 231.693 33.4352Z" fill="#F4ADA2"/>
<path d="M221.169 38.4295C221.645 39.5853 222.135 40.5129 222.639 41.2121C224.132 43.2622 225.219 45.3789 225.9 47.5622C225.971 47.7953 226.045 47.9832 226.121 48.1259C226.544 48.887 226.782 48.692 226.834 47.5408C226.863 46.8559 226.418 45.7404 225.5 44.1945C225.377 43.9886 225.336 43.753 225.386 43.5381C225.7 42.1539 226.216 42.2752 226.934 43.902C227.838 45.9474 229.018 46.2756 230.473 44.8866C230.54 44.8248 230.711 44.6179 230.987 44.2659C231.434 43.6951 231.681 43.9234 231.729 44.9508C231.738 45.1744 231.812 45.3932 231.95 45.6073C232.54 46.5348 232.587 47.655 232.093 48.9678C231.294 51.1083 231.084 53.5937 231.465 56.4239C231.502 56.6854 231.609 56.905 231.765 57.0375C232.059 57.2801 232.247 57.1802 232.328 56.7378C232.352 56.5999 232.352 56.4168 232.328 56.1884C231.995 53.0348 232.58 49.8906 234.083 46.756C234.469 45.9569 234.894 45.9331 235.361 46.6846C236.326 48.2305 237.289 48.6539 238.25 47.9547C238.26 47.9452 238.362 47.831 238.557 47.6122C238.762 47.3886 239.021 47.41 239.335 47.6764C244.424 58.5121 248.294 69.7401 250.943 81.3606C252.209 86.9021 253.079 91.5779 253.555 95.388C254.782 105.239 254.285 115.069 252.064 124.877C250.513 131.736 246.979 136.966 241.461 140.567C237.889 142.893 233.622 144.453 228.661 145.247C222.767 146.189 216.346 145.763 209.396 143.97L204.58 142.186C203.581 126.884 206.554 112.455 213.499 98.8984C213.765 98.6511 213.894 98.3443 213.884 97.978L220.812 104.606L220.598 105.327C220.508 105.641 220.47 105.865 220.484 105.998C220.693 108.495 221.195 110.928 221.99 113.297C222.068 113.533 222.209 113.726 222.389 113.846C222.989 114.255 223.184 114.017 222.974 113.133C222.304 110.283 221.633 107.432 220.962 104.578C220.539 98.6225 220.311 93.5091 220.277 89.2377C220.182 76.78 219.587 64.9478 218.493 53.7411C218.213 50.8443 216.955 44.8391 214.719 35.7253C214.838 33.6895 215.739 33.3327 217.423 34.6551C218.479 35.4875 219.728 36.7456 221.169 38.4295Z" fill="#F4ADA2"/>
<path d="M142.413 37.916L143.933 38.5795C145.545 39.2883 145.738 40.2538 144.511 41.4763C143.731 42.2612 143.521 41.883 143.883 40.3418C143.936 40.1186 143.909 39.8838 143.806 39.6797C143.702 39.4756 143.53 39.3157 143.319 39.2288C141.84 38.6152 140.629 37.7875 139.687 36.7458C139.624 36.6746 139.58 36.5884 139.56 36.494C139.54 36.3996 139.544 36.2997 139.572 36.2021C139.6 36.1045 139.65 36.0119 139.72 35.9317C139.79 35.8515 139.876 35.7857 139.973 35.7398L142.698 34.4626C143.569 34.0583 143.938 34.2938 143.804 35.169C143.69 35.9586 143.203 36.6697 142.342 37.3023C142.291 37.3397 142.252 37.3897 142.227 37.4471C142.202 37.5046 142.193 37.5676 142.2 37.6297C142.208 37.6919 142.231 37.7511 142.268 37.8013C142.306 37.8516 142.356 37.8911 142.413 37.916Z" fill="#5B2448"/>
<path d="M236.688 36.646C237.853 36.5651 238.671 36.9861 239.142 37.9089C239.889 39.3834 240.091 41.0935 239.749 43.0389L238.621 46.6064C237.408 47.7433 236.633 47.6315 236.295 46.2711C236.181 45.8144 236.191 45.208 236.324 44.4517C236.781 41.8688 236.902 39.2669 236.688 36.646Z" fill="#F4ADA2"/>
<path d="M137.697 40.6486C136.232 42.2468 134.434 42.927 132.303 42.6892C131.651 42.6178 131.575 42.3681 132.075 41.94C133.478 40.7556 134.76 39.5212 135.92 38.2369C136.62 37.4568 137.29 37.7399 137.932 39.086C138.053 39.3389 138.094 39.6225 138.052 39.9007C138.011 40.1789 137.887 40.4392 137.697 40.6486Z" fill="#5B2448"/>
<path d="M26.3557 41.0767L27.2762 42.8319C26.9337 43.4502 27.1216 43.9949 27.8398 44.4658L24.6291 47.6765C21.0426 50.716 17.8818 54.5213 15.1467 59.0925C8.56349 70.0994 5.17675 81.8578 4.98649 94.3678C4.97222 95.4238 4.732 96.2134 4.26585 96.7366C3.33355 97.7783 2.34416 97.5619 1.2977 96.0873C1.16791 95.9064 1.09797 95.6766 1.09792 95.4309C1.08841 81.8887 4.5679 69.2265 11.5364 57.4443C15.4369 50.8468 20.3766 45.3909 26.3557 41.0767Z" fill="#65AFEE"/>
<path d="M239.749 43.0386C249.857 49.0748 256.863 57.5773 260.768 68.5461C263.989 77.5885 265.137 87.021 264.215 96.8435C264.215 96.8815 264.198 97.2834 264.165 98.0493C264.107 99.5619 263.396 100.254 262.031 100.126C260.638 99.9924 260.017 99.2289 260.169 97.8352C260.882 91.3519 260.718 85.0874 259.677 79.0417C257.512 66.4508 251.386 56.3025 241.297 48.5967C240.707 48.1448 240.072 47.7786 239.392 47.4979L238.621 46.6061L239.749 43.0386Z" fill="#65AFEE"/>
<path d="M142.925 47.7722C142.607 49.1062 142.894 50.3171 143.564 50.4769C144.235 50.6367 145.037 49.6849 145.355 48.3509C145.672 47.0169 145.386 45.806 144.715 45.6462C144.044 45.4864 143.243 46.4382 142.925 47.7722Z" fill="#9B3C82"/>
<path d="M133.345 54.4478C135.693 54.4478 137.597 52.5439 137.597 50.1953C137.597 47.8468 135.693 45.9429 133.345 45.9429C130.996 45.9429 129.092 47.8468 129.092 50.1953C129.092 52.5439 130.996 54.4478 133.345 54.4478Z" fill="#EC8E91"/>
<path d="M117.134 52.1786C115.983 52.0264 114.841 52.0645 113.709 52.2928C112.9 52.4545 112.703 52.2999 113.117 51.829C113.226 51.7101 113.369 51.6245 113.545 51.5721C117.032 50.5875 119.838 51.5127 121.964 54.3477C122.045 54.4551 122.104 54.5693 122.135 54.6801C122.166 54.7909 122.169 54.8949 122.143 54.9827C122.067 55.2205 121.871 55.2562 121.558 55.0897C121.429 55.0231 121.296 54.9065 121.158 54.7401C119.936 53.2227 118.594 52.3689 117.134 52.1786Z" fill="#A74B86"/>
<path d="M123.079 59.6488L120.472 60.9432C120.257 61.0501 120.169 61.3113 120.276 61.5266L120.295 61.5649C120.401 61.7802 120.663 61.8681 120.878 61.7612L123.485 60.4669C123.701 60.36 123.789 60.0988 123.682 59.8835L123.663 59.8452C123.556 59.6299 123.295 59.542 123.079 59.6488Z" fill="#A74B86"/>
<path d="M142.656 61.9466L143.369 66.0492C142.361 66.0777 140.349 65.8399 137.333 65.3357C134.446 64.8505 132.196 63.3997 130.583 60.9834C130.151 60.3365 130.296 60.1581 131.019 60.4482C134.539 61.8752 138.418 62.3747 142.656 61.9466Z" fill="#5B2448"/>
<path d="M213.884 97.9781C213.894 98.3443 213.765 98.6512 213.499 98.8985C212.229 99.8974 211.173 101.091 210.331 102.48C203.453 113.787 199.167 126.021 197.474 139.183C197.108 142.736 197.112 145.932 197.488 148.772C197.64 149.909 198.064 151.169 198.758 152.554C198.82 152.677 198.97 152.853 199.208 153.082C199.498 153.367 199.555 153.728 199.379 154.166C193.343 151.402 187.751 147.925 182.605 143.735C182.419 143.587 182.352 143.625 182.405 143.849L185.344 156.485C185.558 158.345 186.025 160.138 186.743 161.865L188.705 172.332C186.465 172.85 183.715 173.321 180.457 173.744C170.178 175.067 160.141 175.911 150.347 176.277C146.043 176.439 141.286 176.556 136.077 176.627C117.094 176.889 98.1883 175.704 79.3614 173.074C79.1854 173.05 78.9975 172.931 78.7978 172.717L79.868 161.479L80.5815 156.128L81.3378 147.281C81.3949 146.615 81.1927 146.52 80.7313 146.995C77.9106 149.94 74.7784 152.518 71.3346 154.73C71.0492 154.568 70.9493 154.344 71.0349 154.059C71.1348 153.755 71.1871 153.579 71.1919 153.531C71.4012 151.633 71.2704 149.585 70.7994 147.388C70.0527 143.877 69.1013 140.776 67.9455 138.084C62.8035 125.122 55.9516 112.957 47.3896 101.588C46.9948 101.07 46.5429 100.758 46.0339 100.654C45.8294 100.287 45.5226 100.04 45.1135 99.9117C52.9382 91.5399 61.7523 84.6666 71.5558 79.2916C75.2802 77.251 79.3543 75.5837 83.778 74.2899C94.2949 71.2029 104.048 72.5775 113.039 78.414C113.077 78.4377 113.393 78.7041 113.987 79.2131C114.378 79.5508 114.846 79.7506 115.393 79.8124C114.898 79.9076 114.556 80.2691 114.366 80.8969C113.205 84.726 112.798 88.4648 113.146 92.1131C113.331 94.0729 113.528 95.4856 113.738 96.3513C114.075 97.7688 114.684 99.0864 115.564 100.304C116.492 101.588 117.622 102.223 118.953 102.209C119.957 102.195 120.961 101.655 121.964 100.589C124.88 97.4739 127.054 93.8659 128.486 89.7657C129.052 88.1484 129.273 88.284 129.149 90.1724C129.135 90.3722 129.104 90.5815 129.057 90.8003C127.611 97.3692 126.624 104.459 126.096 112.07C125.777 116.679 127.739 119.523 131.982 120.603C132.22 120.66 132.431 120.689 132.617 120.689C133.24 120.674 133.326 120.441 132.874 119.989C132.745 119.861 132.574 119.771 132.36 119.718C128.521 118.796 126.79 116.187 127.166 111.891C127.96 102.782 129.08 94.7673 130.526 87.8464C130.574 87.6181 130.621 87.6205 130.669 87.8535C131.421 91.5162 132.557 94.8458 134.08 97.8425C134.65 98.9698 135.533 100.047 136.727 101.075C138.02 102.178 139.486 102.409 141.122 101.767C142.925 101.063 144.314 99.5858 145.289 97.3359C147.577 92.0846 148.076 86.6596 146.787 81.0611C155.801 72.8939 166.187 70.7724 177.945 74.6966C183.187 76.4471 188.153 78.7874 192.843 81.7175C200.402 86.4361 207.415 91.8563 213.884 97.9781ZM131.861 100.632C131.861 100.394 131.766 100.165 131.597 99.9966C131.429 99.828 131.2 99.7333 130.962 99.7333C130.723 99.7333 130.494 99.828 130.326 99.9966C130.157 100.165 130.063 100.394 130.063 100.632C130.063 100.871 130.157 101.099 130.326 101.268C130.494 101.437 130.723 101.531 130.962 101.531C131.2 101.531 131.429 101.437 131.597 101.268C131.766 101.099 131.861 100.871 131.861 100.632ZM131.009 112.344C131.083 112.137 131.065 111.907 130.958 111.704C130.852 111.501 130.666 111.342 130.441 111.262C130.33 111.222 130.213 111.203 130.096 111.205C129.98 111.208 129.866 111.232 129.761 111.276C129.657 111.32 129.564 111.384 129.487 111.463C129.411 111.542 129.353 111.636 129.316 111.738C129.242 111.945 129.26 112.175 129.367 112.378C129.473 112.581 129.659 112.74 129.883 112.82C129.995 112.86 130.112 112.879 130.229 112.877C130.345 112.875 130.459 112.851 130.564 112.806C130.668 112.762 130.761 112.699 130.838 112.619C130.914 112.54 130.972 112.446 131.009 112.344ZM93.6385 127.752C89.8094 133.969 85.7306 140.017 81.402 145.897C81.368 145.943 81.3416 145.995 81.3244 146.048C81.3072 146.102 81.2998 146.156 81.3025 146.206C81.3052 146.257 81.318 146.303 81.3401 146.342C81.3622 146.381 81.393 146.412 81.4306 146.432C81.6446 146.555 81.892 146.444 82.1726 146.096C86.4584 140.726 90.5538 134.585 94.459 127.674C94.5133 127.579 94.5315 127.468 94.5106 127.36C94.4896 127.253 94.4308 127.156 94.3449 127.089C94.1213 126.918 93.9501 126.991 93.8312 127.31C93.7551 127.515 93.6908 127.662 93.6385 127.752Z" fill="#F16D22"/>
<path d="M117.526 100.903C116.023 99.7427 115.07 98.2325 114.665 96.3726C113.505 91.0167 113.754 85.7011 115.414 80.426C115.428 80.3845 115.452 80.3467 115.482 80.3154C115.513 80.2841 115.55 80.26 115.591 80.2449C115.632 80.2299 115.676 80.2242 115.719 80.2284C115.763 80.2325 115.805 80.2464 115.843 80.269C120.109 82.8471 124.635 84.2289 129.42 84.4144C129.515 84.4179 129.607 84.4445 129.689 84.4919C129.771 84.5393 129.84 84.6061 129.89 84.6864C129.94 84.7667 129.97 84.8581 129.976 84.9525C129.982 85.0469 129.966 85.1414 129.927 85.2278C128.043 89.3804 126.084 93.2903 124.048 96.9577C123.025 98.7985 121.755 100.168 120.238 101.067C119.296 101.629 118.392 101.574 117.526 100.903Z" fill="#F16D22"/>
<path d="M137.469 100.518C136.032 99.5095 134.9 97.897 134.072 95.6804C132.76 92.17 131.72 88.5764 130.954 84.8995C130.944 84.846 130.945 84.7907 130.958 84.7379C130.971 84.685 130.996 84.6358 131.03 84.594C131.064 84.5522 131.107 84.5189 131.156 84.4964C131.205 84.4739 131.258 84.4629 131.311 84.4642C136.272 84.5356 141.01 83.5747 145.524 81.5817C145.564 81.5637 145.607 81.5546 145.65 81.5552C145.693 81.5558 145.736 81.566 145.775 81.5851C145.814 81.6043 145.848 81.6318 145.875 81.6658C145.902 81.6997 145.921 81.7392 145.931 81.7815C146.549 84.5166 146.67 87.2445 146.295 89.9653C145.971 92.277 145.541 94.1607 145.003 95.6162C144.29 97.5522 143.16 99.1718 141.614 100.475C140.335 101.55 138.953 101.564 137.469 100.518Z" fill="#F16D22"/>
<path d="M213.499 98.8984C206.554 112.455 203.581 126.884 204.58 142.186C204.285 142.362 203.943 142.358 203.553 142.172C201.522 141.187 199.495 140.191 197.474 139.183C199.167 126.021 203.453 113.787 210.331 102.48C211.173 101.091 212.229 99.8973 213.499 98.8984Z" fill="#9B3C59"/>
<path d="M130.962 101.531C131.458 101.531 131.861 101.129 131.861 100.632C131.861 100.136 131.458 99.7334 130.962 99.7334C130.465 99.7334 130.062 100.136 130.062 100.632C130.062 101.129 130.465 101.531 130.962 101.531Z" fill="#F4ADA2"/>
<path d="M46.0339 100.654C46.5429 100.758 46.9948 101.07 47.3896 101.588C55.9516 112.957 62.8035 125.122 67.9455 138.084C65.3198 139.787 62.4753 140.926 59.412 141.502C58.9459 136.859 58.2229 132.756 57.243 129.194C54.6221 119.68 50.8857 110.167 46.0339 100.654Z" fill="#9B3C59"/>
<path d="M43.0017 101.724H43.3013C43.5582 102.29 43.6272 102.873 43.5082 103.472C43.0421 105.779 42.3976 108.034 41.5747 110.236C41.5223 110.369 41.4486 110.472 41.3535 110.543C41.0015 110.809 40.8802 110.676 40.9896 110.143C41.5747 107.318 42.2454 104.512 43.0017 101.724Z" fill="#A74B86"/>
<path d="M220.812 104.607L220.962 104.578C221.633 107.432 222.304 110.284 222.974 113.133C223.184 114.018 222.988 114.256 222.389 113.846C222.209 113.727 222.068 113.533 221.99 113.297C221.195 110.928 220.693 108.495 220.484 105.998C220.47 105.865 220.508 105.641 220.598 105.327L220.812 104.607Z" fill="#A74B86"/>
<path d="M129.883 112.82C130.351 112.988 130.855 112.775 131.009 112.344C131.163 111.914 130.909 111.429 130.441 111.262C129.974 111.095 129.47 111.308 129.316 111.738C129.162 112.169 129.416 112.653 129.883 112.82Z" fill="#F4ADA2"/>
<path d="M93.8312 127.31C93.9502 126.991 94.1214 126.918 94.345 127.089C94.4309 127.156 94.4897 127.253 94.5107 127.36C94.5316 127.468 94.5133 127.579 94.4591 127.674C90.5539 134.585 86.4584 140.726 82.1727 146.096C81.892 146.444 81.6447 146.555 81.4306 146.432C81.3931 146.412 81.3622 146.381 81.3401 146.342C81.3181 146.303 81.3052 146.257 81.3025 146.206C81.2998 146.156 81.3073 146.102 81.3245 146.048C81.3417 145.995 81.3681 145.943 81.4021 145.897C85.7307 140.017 89.8095 133.969 93.6386 127.752C93.6909 127.662 93.7551 127.515 93.8312 127.31Z" fill="#F4ADA2"/>
<path d="M67.9456 138.084C69.1014 140.776 70.0528 143.878 70.7995 147.388C71.2705 149.586 71.4013 151.633 71.192 153.531C71.1872 153.579 71.1349 153.755 71.035 154.059C70.9494 154.345 71.0493 154.568 71.3347 154.73C69.4938 155.458 67.6387 155.455 65.7694 154.723C62.7061 153.529 60.1756 151.724 58.1778 149.307C56.9268 147.795 55.3071 145.678 53.3188 142.957C55.4165 142.729 57.4476 142.244 59.4121 141.502C62.4754 140.926 65.3199 139.787 67.9456 138.084Z" fill="#5B2448"/>
<path d="M197.474 139.183C199.495 140.191 201.522 141.188 203.553 142.172C203.943 142.358 204.285 142.362 204.58 142.186L209.396 143.97C209.116 144.199 208.921 144.501 208.811 144.876C207.684 148.862 205.843 151.945 203.289 154.123C202.2 155.051 200.896 155.065 199.379 154.166C199.555 153.728 199.498 153.367 199.208 153.082C198.97 152.853 198.82 152.677 198.758 152.554C198.064 151.169 197.64 149.909 197.488 148.772C197.112 145.932 197.108 142.736 197.474 139.183Z" fill="#5B2448"/>
<path d="M80.5815 156.128L79.868 161.479C74.4644 162.416 69.4937 163.739 64.9559 165.446C63.7239 165.912 62.461 166.681 61.1672 167.751C58.0801 165.943 57.9707 164.045 60.839 162.057C62.1328 161.153 63.5289 160.454 65.0272 159.959C69.3986 158.504 73.8651 157.45 78.4267 156.799C79.0118 156.713 79.7301 156.489 80.5815 156.128Z" fill="#21A0AA"/>
<path d="M185.344 156.485C189.169 157.194 192.964 158.021 196.732 158.968C199.139 159.572 201.398 160.497 203.51 161.743C204.77 162.49 205.541 163.308 205.822 164.198C206.273 165.63 205.562 166.814 203.688 167.751C202.437 166.719 201.174 165.951 199.9 165.446C195.823 163.839 191.438 162.645 186.743 161.865C186.024 160.138 185.558 158.345 185.344 156.485Z" fill="#21A0AA"/>
<path d="M79.868 161.479L78.7978 172.717C72.6236 172.08 66.7468 170.424 61.1672 167.751C62.461 166.681 63.7239 165.913 64.9559 165.447C69.4938 163.739 74.4645 162.417 79.868 161.479Z" fill="#5B2448"/>
<path d="M186.743 161.865C191.438 162.645 195.823 163.839 199.9 165.446C201.175 165.951 202.437 166.719 203.688 167.751C198.951 170.096 193.956 171.623 188.705 172.332L186.743 161.865Z" fill="#5B2448"/>
</g>
<defs>
<clipPath id="clip0_201_18375">
<rect width="264.74" height="176" fill="white" transform="translate(0.630371 0.716309)"/>
</clipPath>
</defs>
</svg>
