<svg width="41" height="40" viewBox="0 0 41 40" fill="none" xmlns="http://www.w3.org/2000/svg">
<g clip-path="url(#clip0_201_19172)">
<path d="M-33 -5H67V45H-33V-5Z" fill="#00ABC2"/>
<path d="M21.0239 22.7275C24.7394 22.7275 27.7514 19.7155 27.7514 16C27.7514 12.2845 24.7394 9.27246 21.0239 9.27246C17.3084 9.27246 14.2964 12.2845 14.2964 16C14.2964 19.7155 17.3084 22.7275 21.0239 22.7275Z" fill="#FFEC2D"/>
<path d="M21.0239 8.35512C21.4239 8.35012 21.5739 8.10012 21.5739 7.80012C21.5739 7.40012 21.0239 5.49512 21.0239 5.49512C21.0239 5.49512 20.4739 7.40012 20.4739 7.80012C20.4739 8.10012 20.6239 8.35512 21.0239 8.35512Z" fill="#FFEC2D"/>
<path d="M28.6689 16.0002C28.6739 16.4002 28.9239 16.5502 29.2239 16.5502C29.6239 16.5502 31.5289 16.0002 31.5289 16.0002C31.5289 16.0002 29.6239 15.4502 29.2239 15.4502C28.9239 15.4502 28.6689 15.6002 28.6689 16.0002Z" fill="#FFEC2D"/>
<path d="M21.024 23.6449C20.624 23.6499 20.474 23.8999 20.474 24.1999C20.474 24.5999 21.024 26.5049 21.024 26.5049C21.024 26.5049 21.574 24.5999 21.574 24.1999C21.574 23.8999 21.424 23.6449 21.024 23.6449Z" fill="#FFEC2D"/>
<path d="M13.379 16.0003C13.374 15.6003 13.124 15.4503 12.824 15.4503C12.424 15.4503 10.519 16.0003 10.519 16.0003C10.519 16.0003 12.424 16.5503 12.824 16.5503C13.124 16.5503 13.379 16.4003 13.379 16.0003Z" fill="#FFEC2D"/>
<path d="M23.9493 8.93676C24.3208 9.08521 24.555 8.91164 24.6698 8.63448C24.8229 8.26493 25.0438 6.29446 25.0438 6.29446C25.0438 6.29446 23.8066 7.84398 23.6536 8.21353C23.5388 8.49069 23.5798 8.78368 23.9493 8.93676Z" fill="#FFEC2D"/>
<path d="M28.0868 18.9254C27.9383 19.2968 28.1119 19.5311 28.3891 19.6459C28.7586 19.799 30.7291 20.0199 30.7291 20.0199C30.7291 20.0199 29.1796 18.7827 28.81 18.6296C28.5329 18.5148 28.2399 18.5558 28.0868 18.9254Z" fill="#FFEC2D"/>
<path d="M18.0981 23.0628C17.7266 22.9143 17.4923 23.0879 17.3775 23.365C17.2245 23.7346 17.0036 25.7051 17.0036 25.7051C17.0036 25.7051 18.2407 24.1555 18.3938 23.786C18.5086 23.5088 18.4676 23.2158 18.0981 23.0628Z" fill="#FFEC2D"/>
<path d="M13.9607 13.0741C14.1091 12.7027 13.9356 12.4684 13.6584 12.3536C13.2889 12.2005 11.3184 11.9797 11.3184 11.9797C11.3184 11.9797 12.8679 13.2168 13.2375 13.3699C13.5146 13.4847 13.8076 13.4437 13.9607 13.0741Z" fill="#FFEC2D"/>
<path d="M26.4299 10.5939C26.7163 10.8732 26.9992 10.8024 27.2113 10.5903C27.4941 10.3075 28.4523 8.57153 28.4523 8.57153C28.4523 8.57153 26.7163 9.52966 26.4335 9.8125C26.2213 10.0246 26.1471 10.311 26.4299 10.5939Z" fill="#FFEC2D"/>
<path d="M26.4298 21.4056C26.1505 21.692 26.2212 21.9749 26.4334 22.187C26.7162 22.4698 28.4522 23.428 28.4522 23.428C28.4522 23.428 27.494 21.692 27.2112 21.4092C26.9991 21.197 26.7127 21.1228 26.4298 21.4056Z" fill="#FFEC2D"/>
<path d="M15.618 21.4057C15.3317 21.1264 15.0488 21.1971 14.8367 21.4092C14.5538 21.692 13.5957 23.428 13.5957 23.428C13.5957 23.428 15.3317 22.4699 15.6145 22.187C15.8266 21.9749 15.9009 21.6885 15.618 21.4057Z" fill="#FFEC2D"/>
<path d="M15.618 10.5939C15.8973 10.3075 15.8266 10.0246 15.6145 9.81251C15.3316 9.52967 13.5957 8.57154 13.5957 8.57154C13.5957 8.57154 14.5538 10.3075 14.8367 10.5903C15.0488 10.8025 15.3352 10.8767 15.618 10.5939Z" fill="#FFEC2D"/>
<path d="M28.087 13.0743C28.2447 13.4419 28.533 13.4848 28.8102 13.37C29.1798 13.217 30.7293 11.9798 30.7293 11.9798C30.7293 11.9798 28.7588 12.2007 28.3893 12.3538C28.1121 12.4686 27.9339 12.7047 28.087 13.0743Z" fill="#FFEC2D"/>
<path d="M23.9495 23.0628C23.5819 23.2205 23.539 23.5089 23.6538 23.786C23.8068 24.1556 25.044 25.7051 25.044 25.7051C25.044 25.7051 24.8231 23.7346 24.67 23.3651C24.5552 23.0879 24.3191 22.9097 23.9495 23.0628Z" fill="#FFEC2D"/>
<path d="M13.9608 18.9257C13.8031 18.5581 13.5147 18.5152 13.2375 18.63C12.868 18.783 11.3185 20.0202 11.3185 20.0202C11.3185 20.0202 13.2889 19.7993 13.6585 19.6462C13.9356 19.5314 14.1138 19.2953 13.9608 18.9257Z" fill="#FFEC2D"/>
<path d="M18.0983 8.9367C18.466 8.77901 18.5089 8.49064 18.3941 8.21347C18.241 7.84392 17.0039 6.29441 17.0039 6.29441C17.0039 6.29441 17.2247 8.26487 17.3778 8.63443C17.4926 8.91159 17.7288 9.08978 18.0983 8.9367Z" fill="#FFEC2D"/>
<path d="M22.515 8.5017C22.9083 8.57483 23.1042 8.3589 23.1627 8.06466C23.2408 7.67235 23.073 5.69666 23.073 5.69666C23.073 5.69666 22.1619 7.45775 22.0839 7.85007C22.0254 8.1443 22.1227 8.42367 22.515 8.5017Z" fill="#FFEC2D"/>
<path d="M28.5217 17.4912C28.4486 17.8845 28.6645 18.0804 28.9588 18.1389C29.3511 18.217 31.3268 18.0492 31.3268 18.0492C31.3268 18.0492 29.5657 17.1381 29.1734 17.0601C28.8791 17.0016 28.5998 17.0989 28.5217 17.4912Z" fill="#FFEC2D"/>
<path d="M19.5321 23.4983C19.1388 23.4252 18.9429 23.6411 18.8844 23.9353C18.8063 24.3276 18.9741 26.3033 18.9741 26.3033C18.9741 26.3033 19.8852 24.5422 19.9632 24.1499C20.0218 23.8557 19.9244 23.5763 19.5321 23.4983Z" fill="#FFEC2D"/>
<path d="M13.5254 14.5088C13.5985 14.1155 13.3826 13.9196 13.0883 13.8611C12.696 13.783 10.7203 13.9508 10.7203 13.9508C10.7203 13.9508 12.4814 14.8619 12.8737 14.9399C13.168 14.9984 13.4473 14.9011 13.5254 14.5088Z" fill="#FFEC2D"/>
<path d="M25.2711 9.64353C25.6065 9.8616 25.8701 9.73707 26.0367 9.48763C26.259 9.15504 26.86 7.26552 26.86 7.26552C26.86 7.26552 25.3443 8.54391 25.1221 8.8765C24.9554 9.12594 24.9385 9.4213 25.2711 9.64353Z" fill="#FFEC2D"/>
<path d="M27.3803 20.2473C27.1622 20.5826 27.2867 20.8463 27.5362 21.0129C27.8688 21.2352 29.7583 21.8362 29.7583 21.8362C29.7583 21.8362 28.4799 20.3205 28.1473 20.0983C27.8979 19.9316 27.6025 19.9147 27.3803 20.2473Z" fill="#FFEC2D"/>
<path d="M16.7764 22.3565C16.441 22.1384 16.1774 22.2629 16.0107 22.5124C15.7885 22.845 15.1875 24.7345 15.1875 24.7345C15.1875 24.7345 16.7031 23.4561 16.9254 23.1235C17.092 22.8741 17.109 22.5787 16.7764 22.3565Z" fill="#FFEC2D"/>
<path d="M14.6672 11.7527C14.8853 11.4174 14.7607 11.1537 14.5113 10.9871C14.1787 10.7648 12.2892 10.1638 12.2892 10.1638C12.2892 10.1638 13.5676 11.6795 13.9002 11.9017C14.1496 12.0684 14.445 12.0853 14.6672 11.7527Z" fill="#FFEC2D"/>
<path d="M27.3806 11.7528C27.6069 12.0826 27.8982 12.0684 28.1476 11.9017C28.4802 11.6795 29.7586 10.1639 29.7586 10.1639C29.7586 10.1639 27.8691 10.7649 27.5365 10.9871C27.287 11.1538 27.1583 11.4202 27.3806 11.7528Z" fill="#FFEC2D"/>
<path d="M25.2711 22.3568C24.9413 22.5831 24.9555 22.8743 25.1222 23.1238C25.3444 23.4564 26.8601 24.7348 26.8601 24.7348C26.8601 24.7348 26.259 22.8452 26.0368 22.5127C25.8701 22.2632 25.6037 22.1345 25.2711 22.3568Z" fill="#FFEC2D"/>
<path d="M14.6673 20.2472C14.4409 19.9174 14.1497 19.9316 13.9003 20.0983C13.5677 20.3205 12.2893 21.8361 12.2893 21.8361C12.2893 21.8361 14.1788 21.2351 14.5114 21.0129C14.7608 20.8462 14.8895 20.5798 14.6673 20.2472Z" fill="#FFEC2D"/>
<path d="M16.7766 9.64324C17.1064 9.41686 17.0922 9.12565 16.9256 8.87621C16.7033 8.54362 15.1877 7.26524 15.1877 7.26524C15.1877 7.26524 15.7887 9.15475 16.0109 9.48734C16.1776 9.73678 16.444 9.86547 16.7766 9.64324Z" fill="#FFEC2D"/>
<path d="M28.5219 14.5085C28.6048 14.8999 28.8793 14.9982 29.1735 14.9397C29.5658 14.8616 31.3269 13.9506 31.3269 13.9506C31.3269 13.9506 29.3512 13.7828 28.9589 13.8608C28.6647 13.9193 28.4438 14.1162 28.5219 14.5085Z" fill="#FFEC2D"/>
<path d="M22.5152 23.4981C22.1238 23.581 22.0255 23.8555 22.084 24.1497C22.162 24.542 23.0731 26.3031 23.0731 26.3031C23.0731 26.3031 23.2409 24.3274 23.1629 23.9351C23.1043 23.6409 22.9075 23.42 22.5152 23.4981Z" fill="#FFEC2D"/>
<path d="M13.5256 17.4915C13.4427 17.1001 13.1682 17.0018 12.874 17.0603C12.4817 17.1384 10.7206 18.0494 10.7206 18.0494C10.7206 18.0494 12.6963 18.2172 13.0886 18.1392C13.3828 18.0807 13.6037 17.8838 13.5256 17.4915Z" fill="#FFEC2D"/>
<path d="M19.5323 8.50195C19.9237 8.41901 20.022 8.14455 19.9635 7.85031C19.8854 7.458 18.9744 5.6969 18.9744 5.6969C18.9744 5.6969 18.8066 7.6726 18.8846 8.06491C18.9431 8.35915 19.14 8.57998 19.5323 8.50195Z" fill="#FFEC2D"/>
<path d="M19.8234 30.5732C19.6434 30.5832 19.4684 30.6065 19.2967 30.6615C19.0617 30.6932 18.8367 30.7749 18.6034 30.8132L18.5101 30.8282L18.3534 30.8432C18.3634 30.8865 18.3701 30.9299 18.3701 30.9732C18.3701 31.0182 18.3651 31.0615 18.3534 31.0982C18.3434 31.1332 18.3117 31.1765 18.2867 31.2032C18.2534 31.2399 18.2184 31.2715 18.1767 31.2915C18.1367 31.3115 18.0917 31.3199 18.0467 31.3232C18.0017 31.3249 17.9551 31.3232 17.9117 31.3065C17.8667 31.2915 17.8251 31.2632 17.7867 31.2299C17.7406 31.2413 17.6939 31.2496 17.6467 31.2549C17.6001 31.2599 17.5567 31.2599 17.5151 31.2549C17.4684 31.2415 17.4201 31.2265 17.3751 31.2082C17.3297 31.1895 17.2862 31.1666 17.2451 31.1399C17.0751 31.2399 16.8851 31.3349 16.7817 31.5099C16.7234 31.5899 16.7117 31.6815 16.6984 31.7765C16.6901 31.8932 16.7201 32.0165 16.7701 32.1249C16.7884 32.1565 16.8034 32.0099 16.8601 31.9899C16.9551 31.9115 17.0734 31.8549 17.1934 31.8232C17.2951 31.7715 17.2817 31.8265 17.2401 31.9065C17.2301 31.9482 17.1734 32.1065 17.2501 32.0265C17.5884 31.8765 17.9634 31.8465 18.3284 31.8182C18.8584 31.7632 19.3901 31.7515 19.9217 31.7449L21.4217 31.7765C21.6601 31.7832 21.9001 31.8365 22.1351 31.7965C22.1917 31.7815 22.2801 31.7782 22.3134 31.7449C22.2067 31.6832 22.0817 31.6815 21.9634 31.6665H21.0101C20.7451 31.6399 20.4684 31.6365 20.2184 31.5365C20.1517 31.5099 20.0901 31.4465 20.0267 31.5149C19.9317 31.5482 19.8301 31.5715 19.7301 31.5782C19.5551 31.5915 19.3801 31.5549 19.2184 31.4899C19.3351 31.3282 19.4751 31.1865 19.6034 31.0365C19.5001 31.0199 19.4001 30.9982 19.2967 30.9732C19.4784 30.8482 19.6467 30.7065 19.8234 30.5732Z" fill="#FFEC2D"/>
<path d="M27.6101 32.3004C27.2478 32.5179 26.9713 32.1323 26.6685 32.0167C26.4523 32.1341 26.4321 32.5271 26.23 32.7132C25.9883 32.9883 25.692 32.6363 25.7141 32.3649C25.425 32.6086 25.2788 33.161 24.8112 33.0872C24.5897 32.9065 24.4252 32.5272 24.2559 32.959C24.1179 33.1701 23.7504 33.4705 23.5601 33.1517C23.5012 32.8702 23.3601 32.5392 23.207 32.9863C23.1019 33.3026 22.7645 33.5352 22.438 33.3968C22.2593 33.2507 22.5813 32.7104 22.3538 32.7489C22.0138 32.9736 21.8162 33.5318 21.3417 33.4871C21.1575 33.2803 21.4535 32.9299 21.2514 32.7003C21.0129 33.0065 20.7483 33.4548 20.3357 33.4871C20.1363 33.3255 20.3435 32.862 20.2162 32.7934C19.7928 33.0473 19.3461 33.4998 18.8137 33.3581C19.0212 32.5645 19.8882 32.286 20.6173 32.2241C21.8718 32.0699 23.1915 32.3534 24.3985 31.9006C24.5935 31.782 25.066 31.6137 24.8978 31.3385C24.7488 31.1211 25.2854 31.2061 25.337 30.9523C25.3051 30.6308 25.5834 30.675 25.8552 30.6469C27.074 30.5943 28.278 30.851 29.4931 30.8946C29.5849 31.4867 28.9281 31.9024 28.3993 31.7196C28.1467 31.7605 27.768 31.1388 27.8422 31.5911C27.7913 31.8285 27.827 32.142 27.6101 32.3005M17.2401 31.0881C17.5222 31.3464 17.7201 31.0395 17.9838 30.9273C18.8684 30.6231 19.6402 30.0914 20.4011 29.5601C20.8621 29.1786 21.2618 28.6839 21.881 28.5601C23.0887 28.195 24.3726 28.2393 25.585 27.9023C26.5082 26.6383 28.0763 26.1873 29.3898 25.4608C29.6848 25.3691 29.7987 25.1264 29.8929 24.8584C30.3943 24.0669 31.0774 23.3655 31.8852 22.8864C32.2674 22.6776 32.7234 22.5573 33.1561 22.6528C33.1251 23.1682 32.8294 23.6249 32.4725 23.9813C32.7646 23.9749 33.0156 23.7904 33.3108 23.8008C33.412 24.3297 32.8408 24.6065 32.5369 24.9358C32.7062 24.9751 33.3546 25.0242 33.0012 25.1937C32.551 25.5062 32.0368 25.7208 31.6211 26.0837C32.0046 26.1526 32.0483 26.2341 31.6584 26.3728C31.4473 26.5159 31.0413 26.5659 31.0021 26.8446C31.2918 27.0227 30.8686 27.1995 30.7054 27.2574C30.3933 27.3301 30.0655 27.4656 30.4801 27.7027C30.3233 27.9396 29.9868 27.9902 29.7123 27.9667C29.7956 28.2352 29.9162 28.5357 29.5677 28.6541C28.7865 29.2446 27.8697 29.6742 26.8877 29.7725C28.1144 29.8668 29.378 29.6391 30.4263 28.9719C30.5647 28.8083 31.2904 28.6324 30.8845 28.4948C30.6934 28.4153 30.2837 28.327 30.256 28.1813C30.8237 27.831 31.5392 27.9556 32.15 27.7475C32.1658 27.5497 31.6854 27.6047 31.5063 27.5597C31.0791 27.5247 31.1042 27.4157 31.516 27.3753C32.0371 27.2373 32.6273 27.2102 33.0657 26.8704C32.7088 26.7051 32.2599 26.8506 31.8791 26.7156C32.5246 26.4331 33.2862 26.4048 33.8654 25.9804C34.1292 25.6869 33.5274 25.7786 33.352 25.7858C32.9945 25.848 32.8292 25.6769 33.2354 25.5283C33.9289 25.017 34.8071 24.6848 35.2942 23.9435C35.4096 23.7775 35.5659 23.2775 35.1978 23.4574C34.7138 23.6183 34.2879 24.1624 33.7364 23.9941C34.8231 23.1519 35.8571 22.1931 36.5998 21.0276C36.6382 20.6915 36.1105 20.6551 35.9732 20.919C35.275 21.5917 34.6432 22.3858 33.7493 22.8075C34.6054 21.9813 35.3131 21.0029 35.9306 19.9889C36.063 19.6873 36.4188 19.3246 36.2257 18.9898C35.9145 18.7321 35.5251 18.968 35.3633 19.2763C34.8206 19.9848 34.4085 20.8117 33.7106 21.3888C34.3216 20.2227 34.9542 18.9814 34.9696 17.6365C34.9677 17.3596 34.9121 16.9518 34.5361 17.0035C34.238 17.0569 34.3088 17.5031 34.1859 17.7287C33.9154 18.6476 33.7884 19.6427 33.2334 20.4472C33.3583 19.7006 33.5767 18.9222 33.409 18.1682C33.3307 17.8313 32.7865 17.9762 32.8566 18.3097C32.2065 21.6027 29.9969 24.4827 27.1071 26.1487C25.7839 26.8974 24.306 27.38 22.8023 27.5988C22.3978 27.6874 21.9603 27.6354 21.5737 27.7733C20.6369 28.4917 20.0697 29.6937 18.8836 30.0701C18.352 30.3343 17.6588 30.3879 17.2787 30.8817C17.2458 30.9449 17.2388 31.0181 17.2401 31.0881Z" fill="#FFEC2D"/>
<path d="M20.79 27.7474C20.615 28.0651 20.512 28.4303 20.287 28.7147C19.61 28.0987 18.6285 28.119 17.7697 28.078C17.0608 28.0402 16.29 27.9748 15.7415 27.4692C15.1646 26.9966 14.6936 26.383 14.0489 25.9996C13.4605 25.8396 12.8673 25.6394 12.3942 25.236C11.3832 24.4119 10.8042 23.1892 9.81626 22.3394C9.62791 22.154 9.40581 22.0103 9.19481 21.853C8.99431 21.9019 9.08506 22.3346 8.83971 22.114C8.70621 22.019 8.37231 22.0098 8.34221 22.1425C8.64426 22.5405 8.9466 22.9949 8.98845 23.504C8.78245 23.5251 8.4162 23.4605 8.3141 23.5372C8.58765 23.9472 8.93831 24.3108 9.33671 24.6003C9.14561 24.631 8.76906 24.6143 8.69581 24.6913C9.09126 25.0136 9.51531 25.343 10.0332 25.4258C10.1392 25.5655 9.87816 25.8353 10.0977 25.9546C10.2249 26.0066 10.6449 26.0936 10.3556 26.2384C10.1571 26.3721 10.2308 26.6839 10.4846 26.6769C10.6451 26.7589 11.0055 26.7789 11.0337 26.9209C10.8914 27.0656 10.4488 27.2373 10.8255 27.3729C11.1775 27.5681 11.5789 27.6948 11.9808 27.7087C11.7791 27.8784 11.5306 27.9747 11.323 28.1344C12.2505 28.6782 13.2786 29.0359 14.2946 29.3803C14.6991 29.5155 15.1083 29.6415 15.5276 29.7208C14.3092 29.6505 13.1316 29.2898 12.0219 28.7961C11.4467 28.5438 10.8677 28.3001 10.2782 28.0828C10.5367 27.9483 10.8356 27.9155 11.1037 27.7991C10.5473 27.6876 9.9394 27.6511 9.4503 27.3452C9.5253 27.2114 9.80945 27.2051 9.9666 27.137C10.2622 27.0662 10.4455 26.9803 10.0288 26.9546C9.60851 26.8406 9.1265 26.8918 8.75616 26.6382C8.78 26.4862 9.1676 26.5392 9.32545 26.4736C9.52425 26.4394 9.74525 26.4108 9.9041 26.2771C9.2544 26.0077 8.40461 26.1986 7.89571 25.6248C7.77836 25.4062 8.26016 25.5823 8.39736 25.5459C8.74601 25.5459 9.12071 25.6567 9.45271 25.5161C8.50601 25.1005 7.49195 24.7114 6.76995 23.9426C6.6898 23.819 6.4496 23.4813 6.6434 23.4396C7.20535 23.5139 7.6121 24.1272 8.2132 24.0318C8.29305 23.9241 7.86401 23.7477 7.75691 23.5939C6.88051 22.8418 6.0299 22.0257 5.41565 21.0406C5.3734 20.7116 5.89051 20.6623 6.02666 20.9164C6.69691 21.5619 7.30235 22.3152 8.13715 22.7559C8.43335 22.8996 7.96706 22.5859 7.90496 22.4722C7.13361 21.5765 6.3993 20.6305 5.8602 19.5756C5.7637 19.3855 5.6038 19.0413 5.8925 18.9401C6.18115 18.7955 6.46756 18.9925 6.61391 19.2404C7.18101 19.9557 7.5983 20.8058 8.30475 21.4017C7.7029 20.2337 7.06031 19.0043 7.04476 17.6603C7.05891 17.3998 7.07565 17.0057 7.42895 17.0164C7.7256 16.9714 7.67875 17.3512 7.77595 17.5323C8.06825 18.5196 8.19571 19.5883 8.78206 20.4601C8.65256 19.7276 8.46191 18.9733 8.58856 18.2287C8.61776 17.9842 8.89301 17.9102 9.07266 18.058C9.21791 18.4135 9.24815 18.8525 9.3805 19.2326C10.1335 21.8086 11.8243 24.0742 14.0276 25.5946C15.8422 26.8391 17.9957 27.5821 20.1936 27.7116C20.3921 27.7289 20.5914 27.7349 20.7902 27.7471" fill="#FFEC2D"/>
<path d="M18.0002 31.163C18.0655 31.163 18.1185 31.11 18.1185 31.0446C18.1185 30.9793 18.0655 30.9263 18.0002 30.9263C17.9348 30.9263 17.8818 30.9793 17.8818 31.0446C17.8818 31.11 17.9348 31.163 18.0002 31.163Z" fill="#FFEC2D"/>
<path d="M17.9901 31.0736C18.0168 31.0736 18.0384 31.0519 18.0384 31.0253C18.0384 30.9987 18.0168 30.9771 17.9901 30.9771C17.9635 30.9771 17.9419 30.9987 17.9419 31.0253C17.9419 31.0519 17.9635 31.0736 17.9901 31.0736Z" fill="#FFEC2D" stroke="#FFEC2D" stroke-width="0.01905"/>
</g>
<defs>
<clipPath id="clip0_201_19172">
<rect width="100" height="50" fill="white" transform="translate(-33 -5)"/>
</clipPath>
</defs>
</svg>
